<svg xmlns="http://www.w3.org/2000/svg" width="162" height="162" viewBox="0 0 162 162">
  <g fill="none" fill-rule="nonzero">
    <path fill="#BF8B2E" d="M.5.6h160.9v160.9H.5z"/>
    <path fill="#FFF" d="M16.6 21.7h.1v24.9h5.4V14.1h-4.3L12.7 20v5.7h.1l3.8-4zm8.8-.9v3.9h5v-4.1c0-2 1-2.5 2.1-2.5s2 .4 2 2.4v2.7c0 2.7-.2 3.7-2 5.6l-3.1 3.3c-3 3.2-4.1 5.3-4.1 8.5v6h14.2v-4.5h-9v-1.5c0-2.5.9-3.5 2.3-5l3.5-3.7c2.8-3 3.4-4.9 3.4-8.2v-3.2c0-4.6-2.2-6.8-7.1-6.8-4.8 0-7.2 2.6-7.2 7.1zm100.4 66a28.8 28.8 0 0 0-21.7-5.3l-.4.1c-4.2 1-11.1 2.6-19.2 12.7l-.2.3-.2.6.1.5.2.3 3.3 5.8c.3.6 1.2.8 1.7.2l.2-.2c7-9.7 12.5-11 16.1-11.8l.4-.1 2.2-.2c1.7 0 7.5.3 12.1 3.9 4.1 3.2 6.1 8.3 6.1 15.2 0 11.6-5.6 16.1-10.3 17.8a18.8 18.8 0 0 1-14.3-1l-.3-.2c-4-1.8-10.1-5.4-15.8-16.9-11.7-23.5-21.5-25.7-28-27.2l-.3-.1c-.5-.1-1.9-.4-4.2-.4-3.8 0-11 .7-17.2 5.7-4.2 3.4-9.3 10-9.3 22a25.6 25.6 0 0 0 31.8 26.4c2.4-.5 6-1.6 10.1-4.6l3.4 3.1c.4.3 1 .3 1.4-.1.2-.2.3-.4.2-.6l2.6-16.3v-.2a1 1 0 0 0-.3-.7 1 1 0 0 0-.7-.3l-15.9 4.4h-.3c-.2 0-.4.1-.5.3a1 1 0 0 0-.3.7c0 .3.1.5.3.7l3.3 3a14.5 14.5 0 0 1-5.1 2.1 20 20 0 0 1-4.2.4 17 17 0 0 1-13.6-6.2l-.1-.1a17.7 17.7 0 0 1-3.7-12.1c0-6.9 2-12.1 6-15.3a19.6 19.6 0 0 1 14-3.6l.4.1c5.2 1.2 12.3 2.8 22.2 22.6a41.1 41.1 0 0 0 19.9 20.9c1 .5 6 2.9 12.6 2.9 3 0 6-.5 8.8-1.6 4.8-1.8 15.9-7.9 15.9-26a25.3 25.3 0 0 0-9.2-21.6zM54.1 21.2v6h-2.2V14.1h3.2c2.2 0 3 1.1 3 2.9v1.7c0 1.4-.5 2.2-1.8 2.5l2.1 6h-2.3l-2-6zm0-5.3V20h.7c.8 0 1.1-.4 1.1-1.1V17c0-.7-.3-1.1-1.1-1.1h-.7zm5.5-1.8h5.3v1.8h-3.1v3.8H64v1.8h-2.2v4h3.1v1.8h-5.3V14.1zm6.5 10.3v-1.8h2.1v1.8c0 .7.3 1.2 1.1 1.2.7 0 1-.5 1-1.2v-.5c0-.8-.3-1.2-1-1.9L68 20.7c-1.3-1.2-1.8-2-1.8-3.5v-.4c0-1.6 1-2.9 3.1-2.9 2.2 0 3.1 1.1 3.1 3V18h-2v-1.1c0-.8-.3-1.1-1-1.1-.6 0-1 .3-1 1.1v.3c0 .7.4 1.2 1 1.8l1.4 1.4c1.2 1.2 1.8 2 1.8 3.4v.6c0 1.8-1 3.1-3.2 3.1-2.4-.1-3.3-1.4-3.3-3.1zm7.7-10.3h3.3c2.2 0 3 1.1 3 2.9v2.8c0 1.8-.8 3-3 3H76v4.5h-2.2V14.1zm2.2 1.8v5.2h.8c.8 0 1.1-.4 1.1-1.1v-3c0-.7-.3-1.1-1.1-1.1H76zm5.5 7.9v-6.4c0-2.1 1-3.5 3.3-3.5s3.4 1.5 3.4 3.5v6.4c0 2-1 3.5-3.4 3.5-2.3.1-3.3-1.5-3.3-3.5zm4.5.4v-7.1c0-.8-.3-1.4-1.1-1.4s-1.1.6-1.1 1.4v7.1c0 .8.3 1.4 1.1 1.4.7-.1 1.1-.6 1.1-1.4zm5.5-5.3v8.3h-1.9V14.1h2.2l2.4 7.5v-7.5H96v13.1h-1.9l-2.6-8.3zm6 5.5v-1.8h2.1v1.8c0 .7.3 1.2 1.1 1.2.7 0 1-.5 1-1.2v-.5c0-.8-.3-1.2-1-1.9l-1.3-1.3c-1.3-1.2-1.8-2-1.8-3.5v-.4c0-1.6 1-2.9 3.1-2.9 2.2 0 3.1 1.1 3.1 3V18h-2v-1.1c0-.8-.3-1.1-1-1.1-.6 0-1 .3-1 1.1v.3c0 .7.4 1.2 1 1.8l1.4 1.4c1.2 1.2 1.8 2 1.8 3.4v.6c0 1.8-1 3.1-3.2 3.1-2.5-.1-3.3-1.4-3.3-3.1zm7.6-10.3h2.2v13.1h-2.2V14.1zm3.7 0h3.2c2.2 0 2.9 1 2.9 2.9v1.3c0 1.1-.4 1.8-1.3 2.1 1.1.3 1.6 1 1.6 2.2v1.7c0 1.9-.8 2.9-3 2.9h-3.4V14.1zm2.3 5.5h.8c.7 0 1-.4 1-1.1v-1.6c0-.7-.3-1.1-1.1-1.1h-.8l.1 3.8zm0 1.7v4.1h1c.7 0 1.1-.4 1.1-1.1v-2c0-.7-.3-1.1-1.1-1.1h-1v.1zm5.5-7.2h2.2v11.3h2.6v1.8h-4.8V14.1zm6.1 0h5.3v1.8h-3.1v3.8h2.2v1.8h-2.2v4h3.1v1.8h-5.3V14.1zM51.9 43.1v-6.4c0-2.1 1-3.5 3.3-3.5 2.4 0 3.1 1.4 3.1 3.3v1.6h-2v-1.7c0-.8-.3-1.3-1.1-1.3s-1.1.6-1.1 1.4v7.1c0 .8.3 1.4 1.1 1.4s1.1-.5 1.1-1.3v-2.4h2v2.3c0 1.9-.8 3.3-3.1 3.3-2.3-.2-3.3-1.7-3.3-3.8zm7.8 0v-6.4c0-2.1 1-3.5 3.3-3.5s3.4 1.5 3.4 3.5v6.4c0 2-1 3.5-3.4 3.5-2.3.1-3.3-1.4-3.3-3.5zm4.5.4v-7.1c0-.8-.3-1.4-1.1-1.4s-1.1.6-1.1 1.4v7.1c0 .8.3 1.4 1.1 1.4.8-.1 1.1-.6 1.1-1.4zm5.5-5.2v8.3h-1.9V33.5H70l2.4 7.5v-7.5h1.8v13.1h-1.9l-2.6-8.3zm5.9 5.4v-1.8h2.1v1.8c0 .7.3 1.2 1.1 1.2.7 0 1-.5 1-1.2v-.5c0-.8-.3-1.2-1-1.9L77.5 40c-1.3-1.2-1.8-2-1.8-3.5v-.4c0-1.6 1-2.9 3.1-2.9 2.2 0 3.1 1.1 3.1 3v1.1h-2v-1.1c0-.8-.3-1.1-1-1.1-.6 0-1 .3-1 1.1v.3c0 .7.4 1.2 1 1.8l1.4 1.4c1.2 1.2 1.8 2 1.8 3.4v.6c0 1.8-1 3.1-3.2 3.1-2.4-.1-3.3-1.4-3.3-3.1zm14.1-10.3v9.9c0 2-.9 3.4-3.1 3.4-2.3 0-3.3-1.3-3.3-3.4v-9.9h2.2v10.2c0 .8.3 1.3 1.1 1.3s1.1-.5 1.1-1.3V33.4h2zm7.6 4.6l-1.6 8.5h-1L93.1 38v8.5h-1.8V33.4h2.6l1.4 7.4 1.3-7.4h2.8v13.1h-2V38h-.1zm3.5-4.6h3.3c2.2 0 3 1.1 3 2.9v2.8c0 1.8-.8 3-3 3H103v4.5h-2.2V33.4zm2.2 1.8v5.2h.8c.8 0 1.1-.4 1.1-1.1v-3c0-.7-.3-1.1-1.1-1.1h-.8zm4.8-1.8h5.9v1.8h-1.8v11.3h-2.2V35.2h-1.8l-.1-1.8zm6.9 0h2.2v13.1h-2.2V33.4zm3.5 9.7v-6.4c0-2.1 1-3.5 3.3-3.5s3.4 1.5 3.4 3.5v6.4c0 2-1 3.5-3.4 3.5-2.3.1-3.3-1.4-3.3-3.5zm4.5.4v-7.1c0-.8-.3-1.4-1.1-1.4s-1.1.6-1.1 1.4v7.1c0 .8.3 1.4 1.1 1.4.7-.1 1.1-.6 1.1-1.4zm5.4-5.2v8.3h-1.9V33.5h2.2l2.4 7.5v-7.5h1.8v13.1h-1.9l-2.6-8.3zM51.6 65.8l2.5-13.1h2.5l2.5 13.1h-2.3l-.4-2.4h-2.3l-.4 2.4h-2.1zm2.7-4.1h1.8l-.9-5.3-.9 5.3zm7.6-4.1v8.3H60V52.8h2.2l2.4 7.5v-7.5h1.8v13.1h-1.9l-2.6-8.3zm12.5-1.4v6.1c0 2-.8 3.5-3.2 3.5h-3.4V52.7h3.4c2.3 0 3.2 1.5 3.2 3.5zM70.9 64c.9 0 1.3-.5 1.3-1.3v-6.9c0-.8-.3-1.3-1.3-1.3H70V64h.9zm6.9-11.3h3.3c2.2 0 3 1.1 3 2.9v2.8c0 1.8-.8 3-3 3H80v4.5h-2.2V52.7zm2.2 1.8v5.2h.8c.8 0 1.1-.4 1.1-1.1v-3c0-.7-.3-1.1-1.1-1.1H80zm7.5 5.3v6h-2.2V52.7h3.2c2.2 0 3 1.1 3 2.9v1.7c0 1.4-.5 2.2-1.8 2.5l2.1 6h-2.3l-2-6zm0-5.3v4.1h.7c.8 0 1.1-.4 1.1-1.1v-1.9c0-.7-.3-1.1-1.1-1.1h-.7zm5.3 7.9V56c0-2.1 1-3.5 3.3-3.5s3.4 1.5 3.4 3.5v6.4c0 2-1 3.5-3.4 3.5-2.3.1-3.3-1.4-3.3-3.5zm4.5.4v-7.1c0-.8-.3-1.4-1.1-1.4s-1.1.6-1.1 1.4v7.1c0 .8.3 1.4 1.1 1.4.8-.1 1.1-.6 1.1-1.4zm10.2-6.6v6.1c0 2-.8 3.5-3.2 3.5h-3.4V52.7h3.4c2.3 0 3.2 1.5 3.2 3.5zM104 64c.9 0 1.3-.5 1.3-1.3v-6.9c0-.8-.3-1.3-1.3-1.3h-.9V64h.9zm11.2-11.3v9.9c0 2-.9 3.4-3.1 3.4-2.3 0-3.3-1.3-3.3-3.4v-9.9h2.2v10.2c0 .8.3 1.3 1.1 1.3s1.1-.5 1.1-1.3V52.7h2zm1.3 9.7V56c0-2.1 1-3.5 3.3-3.5 2.4 0 3.1 1.4 3.1 3.3v1.6h-2v-1.7c0-.8-.3-1.3-1.1-1.3s-1.1.6-1.1 1.4v7.1c0 .8.3 1.4 1.1 1.4s1.1-.5 1.1-1.3v-2.4h2v2.3c0 1.9-.8 3.3-3.1 3.3-2.3-.2-3.3-1.7-3.3-3.8zm7.5-9.7h5.9v1.8h-1.8v11.3h-2.2V54.5h-1.8l-.1-1.8zm6.9 0h2.2v13.1h-2.2V52.7zm3.5 9.7V56c0-2.1 1-3.5 3.3-3.5s3.4 1.5 3.4 3.5v6.4c0 2-1 3.5-3.4 3.5-2.3.1-3.3-1.4-3.3-3.5zm4.5.4v-7.1c0-.8-.3-1.4-1.1-1.4s-1.1.6-1.1 1.4v7.1c0 .8.3 1.4 1.1 1.4.7-.1 1.1-.6 1.1-1.4zm5.3-5.2v8.3h-1.9V52.8h2.2l2.4 7.5v-7.5h1.8v13.1h-1.9l-2.6-8.3z"/>
  </g>
</svg>
