<svg xmlns="http://www.w3.org/2000/svg" width="161" height="161" viewBox="0 0 161 161">
  <g fill="none" fill-rule="nonzero">
    <path fill="#DDA63A" d="M.1 0H161v160.9H.1z"/>
    <path fill="#FFF" d="M30.2 41.5h-8.9V40c0-2.5.9-3.5 2.3-5l3.5-3.7c2.8-3 3.4-4.9 3.4-8.2V20c0-4.6-2.2-6.8-7.1-6.8-4.8 0-7.2 2.5-7.2 7.1v3.9h5v-4.1c0-2 1-2.5 2.1-2.5s2 .4 2 2.4v2.7c0 2.7-.2 3.7-2 5.6l-3.1 3.3c-3 3.2-4.1 5.3-4.1 8.5v6h14.2l-.1-4.6zM66.6 136.8v2.5c0 .6.5 1 1 1h26.5c.6 0 1-.5 1-1.1v-2.6a41.5 41.5 0 0 0 28.6-31.8v-.2c0-.6-.5-1.1-1.1-1.1H38c-.6 0-1.1.5-1.1 1.1l.1.5a42.4 42.4 0 0 0 29.6 31.7m28.7-69.5c-.3.5-8.5 12.3.2 21.8 4 4.4 3.6 8.2 2.5 10.8h5.6c1.1-3.8.7-8.7-3.9-13.6-6.4-7 .1-16.5.2-16.6.8-1.1.4-2.5-.9-3.1-1.3-.7-2.9-.4-3.7.7M81.2 99.9h5.6c1.1-3.8.7-8.7-3.9-13.6-6.4-7 .1-16.5.2-16.6.8-1.1.4-2.5-.9-3.1-1.3-.6-2.9-.3-3.7.8-.4.5-8.5 12.3.2 21.8 4 4.3 3.6 8.1 2.5 10.7M61.6 67.3c-.4.5-8.5 12.3.2 21.8 4 4.4 3.6 8.2 2.5 10.8h5.6c1.1-3.8.7-8.7-3.9-13.6-6.4-7 .1-16.5.2-16.6.8-1.1.4-2.5-.9-3.1-1.2-.7-2.9-.4-3.7.7M48.3 24.9h3.4v1.8H46v-1.8l3.5-9.5h-3.1v-1.8h5.5v1.8l-3.6 9.5zm4.8-11.4h5.3v1.8h-3.1v3.8h2.2v1.8h-2.2v4h3.1v1.8h-5.3V13.5zm8.9 7.1v6h-2.2V13.5H63c2.2 0 3 1.1 3 2.9v1.7c0 1.4-.5 2.2-1.8 2.5l2.1 6H64l-2-6zm0-5.3v4.1h.7c.8 0 1.1-.4 1.1-1.1v-1.9c0-.7-.3-1.1-1.1-1.1H62zm5.4 8v-6.4c0-2.1 1-3.5 3.3-3.5s3.4 1.5 3.4 3.5v6.4c0 2-1 3.5-3.4 3.5-2.3 0-3.3-1.5-3.3-3.5zm4.5.3v-7.1c0-.8-.3-1.4-1.1-1.4s-1.1.6-1.1 1.4v7.1c0 .8.3 1.4 1.1 1.4s1.1-.6 1.1-1.4zM50.4 40.1h-2.1v5.8h-2.2V32.8h2.2v5.6h2.1v-5.6h2.2v13.1h-2.2v-5.8zm10.1-7.3v9.9c0 2-.9 3.4-3.1 3.4-2.3 0-3.3-1.3-3.3-3.4v-9.9h2.2V43c0 .8.3 1.3 1.1 1.3s1.1-.5 1.1-1.3V32.8h2zm3.3 4.9V46H62V32.9h2.2l2.4 7.5v-7.5h1.8V46h-1.9l-2.7-8.3zm9.4 1.2h3.1v7h-1.6v-1.4c-.3 1-.9 1.6-2.1 1.6-1.9 0-2.8-1.5-2.8-3.5v-6.4c0-2.1 1-3.5 3.3-3.5 2.4 0 3.2 1.4 3.2 3.3v1.2h-2v-1.3c0-.8-.3-1.3-1.1-1.3s-1.1.6-1.1 1.4v7.1c0 .8.3 1.4 1.1 1.4.7 0 1.1-.4 1.1-1.3v-2.3h-1v-2h-.1zm4.6-6.1h5.3v1.8H80v3.8h2.2v1.8H80v4h3.1V46h-5.3V32.8zm8.8 7.1v6h-2.2V32.8h3.2c2.2 0 3 1.1 3 2.9v1.7c0 1.4-.5 2.2-1.8 2.5l2.1 6h-2.3l-2-6zm0-5.3v4.1h.7c.8 0 1.1-.4 1.1-1.1v-1.9c0-.7-.3-1.1-1.1-1.1h-.7z"/>
  </g>
</svg>
