<svg xmlns="http://www.w3.org/2000/svg" width="162" height="161" viewBox="0 0 162 161">
  <g fill="none" fill-rule="nonzero">
    <path fill="#E5243B" d="M.8 0h160.9v160.9H.8z"/>
    <path fill="#FFF" d="M23.2 21.2h.1V46h5.4V13.6h-4.3l-5 5.9v5.7l3.8-4zM132 81.3c2.5 0 4.4-2 4.4-4.5s-2-4.5-4.4-4.5c-2.5 0-4.5 2-4.5 4.5s2 4.5 4.5 4.5zm5.2 1.7h-10.4a6 6 0 0 0-5.4 5.9v12.3c0 .9.8 1.7 1.7 1.7 1 0 1.7-.8 1.7-1.7V90.6c0-.4.1-.9.8-.9.5 0 .6.5.6.9v31.8c0 1.4 1.1 2.5 2.5 2.5s2.5-1.1 2.5-2.5V104c0-.2.1-.7.7-.7s.7.5.7.7v18.3c0 1.4 1.1 2.5 2.5 2.5s2.5-1.1 2.5-2.5V90.5c0-.3.1-.9.6-.9.7 0 .8.5.8.9v10.6c0 .9.8 1.7 1.7 1.7 1 0 1.7-.8 1.7-1.7V88.9a5.6 5.6 0 0 0-5.2-5.9zm-40.4.4c2.3 0 4.2-1.9 4.2-4.2 0-2.3-1.9-4.2-4.2-4.2a4.2 4.2 0 0 0-4.2 4.2c0 2.3 1.9 4.2 4.2 4.2zm5 7.7c.6-.2.7.6.7.6l2.8 9.5s.5 2 2.3 1.5c1.8-.5 1.2-2.6 1.2-2.6l-3.5-11.4s-1.3-3.3-4-3.3h-9c-2.8 0-4 3.3-4 3.3l-3.5 11.4s-.6 2.1 1.2 2.6c1.8.5 2.3-1.5 2.3-1.5l2.8-9.5s.2-.7.7-.6c.6.2.3.9.3.9l-4.9 17.9h4.6v12.8c0 1.2 1 2.2 2.2 2.2 1.2 0 2.2-1 2.2-2.2v-12.8h1.2v12.8c0 1.2 1 2.2 2.2 2.2 1.2 0 2.2-1 2.2-2.2v-12.8h4.6L101.5 92s-.2-.7.3-.9zm-30.3-7.7c2.3 0 4.2-1.9 4.2-4.2 0-2.3-1.9-4.2-4.2-4.2a4.2 4.2 0 0 0-4.2 4.2c0 2.3 1.9 4.2 4.2 4.2zm8.5 5.3s-1.2-3.3-4-3.3h-9c-2.8 0-4 3.3-4 3.3l-3.5 11.4-.1.7c-.2-.3-.6-.5-1-.5-.5 0-.9.2-1.1.6-.1.1-1.7 3-2.3 3.5-.6.6-1.1.5-1.1.5h-4.2s-.5.1-1.1-.5c-.5-.5-2.2-3.5-2.3-3.5-.2-.4-.6-.6-1.1-.6-.4 0-.8.2-1 .6v-12a6 6 0 0 0-5.4-5.9H28.4a6 6 0 0 0-5.4 5.9v12.3c0 .7.4 1.2.9 1.5l-.1.2-4 21c-.1.4.2.7.5.8h.1c.3 0 .6-.2.6-.5l4-21v-.2c.8-.2 1.3-.9 1.3-1.7V90.7c0-.4.1-.9.8-.9.5 0 .6.5.6.9v31.8c0 1.4 1.1 2.5 2.5 2.5s2.5-1.1 2.5-2.5V104c0-.2.1-.7.7-.7s.7.5.7.7v18.3c0 1.4 1.1 2.5 2.5 2.5s2.5-1.1 2.5-2.5V90.5c0-.3.1-.9.6-.9.7 0 .8.5.8.9v10.6c0 .9.8 1.7 1.7 1.7.7 0 1.3-.4 1.6-1l.1.2 3.5 6.4.2.8v1.3l-1.9 6.9h1.9v5.6c0 1 .8 1.7 1.7 1.7 1 0 1.7-.8 1.7-1.7V117.4h1v5.6c0 1 .8 1.7 1.7 1.7 1 0 1.7-.8 1.7-1.7v-5.6h1.9l-1.9-6.9v-1.2l.2-.8 3.3-5.9.3-.8c.2.4.5.7 1 .9 1.8.5 2.3-1.5 2.3-1.5l2.8-9.5s.2-.7.7-.6c.6.2.3.9.3.9l-4.9 17.9H66v12.8c0 1.2 1 2.2 2.2 2.2 1.2 0 2.2-1 2.2-2.2v-12.8h1.2v12.8c0 1.2 1 2.2 2.2 2.2 1.2 0 2.2-1 2.2-2.2v-12.8h4.6L75.7 92s-.2-.8.3-.9c.6-.2.7.6.7.6l2.8 9.5s.5 2 2.3 1.5c1.8-.5 1.2-2.6 1.2-2.6l-3-11.4zm35.2 14c1.9 0 3.5-1.6 3.5-3.5s-1.6-3.5-3.5-3.5a3.5 3.5 0 0 0-3.5 3.5c0 2 1.5 3.5 3.5 3.5zm8.3 10l-2.5-6.3c-.8-2.3-2.2-2.3-3.6-2.3h-4.9c-1.8.1-2.4 1-4.4 6.2l-1.3 3.3c-.2.4-.3 1.3.5 1.7 1 .4 1.5-.5 1.5-.5l1.9-6.1s.3-.4.3 0V123c0 1 .8 1.8 1.8 1.8s1.8-.8 1.8-1.8v-5.7s-.1-.8.5-.8.5.8.5.8v5.7c0 1 .8 1.8 1.8 1.8s1.8-.8 1.8-1.8v-14.3c0-.4.2-.1.2-.1l1.5 4.2s.6 1.9.8 1.9c.7.3 1.5 0 1.7-.7.4-.4.3-.9.1-1.3zM33.6 81.3c2.5 0 4.5-2 4.5-4.5s-2-4.5-4.5-4.5-4.4 2-4.4 4.5 2 4.5 4.4 4.5z"/>
    <path fill="#FFF" d="M51.8 102.7c1.9 0 3.5-1.6 3.5-3.5s-1.6-3.5-3.5-3.5a3.5 3.5 0 0 0-3.5 3.5c0 2 1.6 3.5 3.5 3.5zm-2.9-84.5v8.3H47V13.4h2.2l2.4 7.5v-7.5h1.8v13.1h-1.9l-2.6-8.3zm6 4.9v-6.4c0-2.1 1-3.5 3.3-3.5s3.4 1.5 3.4 3.5v6.4c0 2-1 3.5-3.4 3.5-2.3 0-3.3-1.5-3.3-3.5zm4.5.3v-7.1c0-.8-.3-1.4-1.1-1.4s-1.1.6-1.1 1.4v7.1c0 .8.3 1.4 1.1 1.4.7 0 1.1-.6 1.1-1.4zm-12.3 9.4h3.3c2.2 0 3 1.1 3 2.9v2.8c0 1.8-.8 3-3 3h-1.1V46h-2.2V32.8zm2.2 1.8v5.2h.8c.8 0 1.1-.4 1.1-1.1v-3c0-.7-.3-1.1-1.1-1.1h-.8zm5.4 8v-6.4c0-2.1 1-3.5 3.3-3.5s3.4 1.5 3.4 3.5v6.4c0 2-1 3.5-3.4 3.5-2.3 0-3.3-1.5-3.3-3.5zm4.5.3v-7.1c0-.8-.3-1.4-1.1-1.4S57 35 57 35.8v7.1c0 .8.3 1.4 1.1 1.4.7 0 1.1-.6 1.1-1.4zm10.4-10.1l-2.5 13.1h-2.4l-2.5-13.1h2.2l1.5 9.2 1.6-9.2h2.1zm1.1 0H76v1.8h-3.1v3.8h2.2v1.8h-2.2v4H76V46h-5.3V32.8zm8.8 7.1v6h-2.2V32.8h3.2c2.2 0 3 1.1 3 2.9v1.7c0 1.4-.5 2.2-1.8 2.5l2.1 6h-2.3l-2-6zm0-5.3v4.1h.7c.8 0 1.1-.4 1.1-1.1v-1.9c0-.7-.3-1.1-1.1-1.1h-.7zm5-1.8h5.9v1.8h-1.8V46h-2.2V34.7h-1.8l-.1-1.9zm11.4 8.1v5h-2.2v-5l-2.5-8.1h2.3l1.3 5 1.3-5h2.1l-2.3 8.1z"/>
  </g>
</svg>
