<svg xmlns="http://www.w3.org/2000/svg" width="162" height="162" viewBox="0 0 162 162">
  <g fill="none" fill-rule="nonzero">
    <path fill="#DD1367" d="M.8.6h160.9v160.9H.8z"/>
    <path fill="#FFF" d="M16.4 21.7v24.8h5.4V14.1h-4.3l-5.1 5.8v5.7h.1l3.8-3.9h.1zm25.4 16.5V22.5c0-5.1-2.5-8.8-8.1-8.8-5.5 0-8 3.7-8 8.8v15.7c0 5 2.5 8.8 8 8.8 5.5-.1 8.1-3.8 8.1-8.8zm-10.7.8V21.6c0-2 .7-3.4 2.6-3.4 1.9 0 2.6 1.4 2.6 3.4V39c0 2-.7 3.4-2.6 3.4-1.9 0-2.6-1.4-2.6-3.4zM54.4 21.2v6h-2.2V14h3.2c2.2 0 3 1.1 3 2.9v1.7c0 1.4-.5 2.2-1.8 2.5l2.1 6h-2.3l-2-5.9zm0-5.4v4.1h.7c.8 0 1.1-.4 1.1-1.1v-1.9c0-.7-.3-1.1-1.1-1.1h-.7zm5.5-1.8h5.3v1.8h-3.1v3.8h2.2v1.8h-2.2v4h3.1v1.8h-5.3V14zm12.8 3.6v6.1c0 2-.8 3.5-3.2 3.5h-3.4V14h3.4c2.4 0 3.2 1.5 3.2 3.6zm-3.5 7.8c.9 0 1.3-.5 1.3-1.3v-6.9c0-.8-.3-1.3-1.3-1.3h-.9v9.5h.9zM80.6 14v9.9c0 2-.9 3.4-3.1 3.4-2.3 0-3.3-1.3-3.3-3.4V14h2.2v10.2c0 .8.3 1.3 1.1 1.3s1.1-.5 1.1-1.3V14h2zm1.4 9.8v-6.4c0-2.1 1-3.5 3.3-3.5 2.4 0 3.1 1.4 3.1 3.3v1.6h-2V17c0-.8-.3-1.3-1.1-1.3s-1.1.6-1.1 1.4v7.1c0 .8.3 1.4 1.1 1.4s1.1-.5 1.1-1.3v-2.4h2v2.3c0 1.9-.8 3.3-3.1 3.3-2.3-.2-3.3-1.7-3.3-3.7zm7.8-9.8h5.3v1.8H92v3.8h2.2v1.8H92v4h3.1v1.8h-5.3V14zm13.3 3.6v6.1c0 2-.8 3.5-3.2 3.5h-3.4V14h3.4c2.4 0 3.2 1.5 3.2 3.6zm-3.5 7.8c.9 0 1.3-.5 1.3-1.3v-6.9c0-.8-.3-1.3-1.3-1.3h-.9v9.5h.9zM52.2 33.2h2.2v13.1h-2.2V33.2zm5.5 4.8v8.3h-1.9V33.2H58l2.4 7.5v-7.5h1.8v13.1h-1.9L57.7 38zm5.8-4.8h5.3V35h-3.1v3.8h2.2v1.8h-2.2v4h3.1v1.8h-5.3V33.2zm8.6 14v-.9c-1.8-.3-2.5-1.6-2.5-3.4v-6.4c0-2.1 1-3.5 3.3-3.5s3.4 1.5 3.4 3.5v6.4c0 1.4-.5 2.6-1.6 3.1l1.6.3v1.6l-4.2-.7zm2-3.8v-7.2c0-.8-.3-1.4-1.1-1.4s-1.1.6-1.1 1.4v7.2c0 .8.3 1.4 1.1 1.4.7-.1 1.1-.6 1.1-1.4zm9.8-10.2v9.9c0 2-.9 3.4-3.1 3.4-2.3 0-3.3-1.3-3.3-3.4v-9.9h2.2v10.2c0 .8.3 1.3 1.1 1.3s1.1-.5 1.1-1.3V33.2h2zm.7 13.1l2.5-13.1h2.5l2.5 13.1h-2.3l-.4-2.4h-2.3l-.4 2.4h-2.1zm2.8-4.2h1.8l-.9-5.3-.9 5.3zm5.7-8.9h2.2v11.3h2.6v1.8h-4.8V33.2zm5.8 0h2.2v13.1h-2.2V33.2zm3.2 0h5.9V35h-1.8v11.3H104V35h-1.8v-1.8h-.1zm6.9 0h2.2v13.1H109V33.2zm3.5 0h5.3V35h-3.1v3.8h2.2v1.8h-2.2v4h3.1v1.8h-5.3V33.2zm6.2 10.3v-1.8h2.1v1.8c0 .7.3 1.2 1.1 1.2.7 0 1-.5 1-1.2V43c0-.8-.3-1.2-1-1.9l-1.3-1.3c-1.3-1.2-1.8-2-1.8-3.5v-.4c0-1.6 1-2.9 3.1-2.9 2.2 0 3.1 1.1 3.1 3v1.1h-2V36c0-.8-.3-1.1-1-1.1-.6 0-1 .3-1 1.1v.3c0 .7.4 1.2 1 1.8l1.4 1.4c1.2 1.2 1.8 2 1.8 3.4v.6c0 1.8-1 3.1-3.2 3.1-2.5-.1-3.3-1.4-3.3-3.1zM53.9 88.5l-15.1 15.1 15.1 15.2V88.5zm54.8 30.3l15.1-15.2-15.1-15.1v30.3zM96.5 76.3L81.3 61.2 66.2 76.3h30.3zM66.2 131l15.1 15.1L96.5 131H66.2zm-1.3-41.5h32.9v9.1H64.9v-9.1zm0 18.8h32.9v9.5H64.9v-9.5z"/>
  </g>
</svg>
