<svg xmlns="http://www.w3.org/2000/svg" width="161" height="162" viewBox="0 0 161 162">
  <g fill="none" fill-rule="nonzero">
    <path fill="#A21942" d="M.1.6H161v160.9H.1z"/>
    <path fill="#FFF" d="M31.4 38.6V35c0-3.1-1.1-5.4-3.6-6.5 2.2-1.1 3.2-3 3.2-5.6v-1.3c0-5.1-2.6-7.8-7.7-7.8-5 0-7.6 2.7-7.6 7.8v1.3c0 2.6 1 4.6 3.1 5.6-2.5 1.1-3.6 3.4-3.6 6.5v3.5c0 4.9 2.3 8.4 8.1 8.4 5.7.1 8.1-3.4 8.1-8.3zM20.8 21.2c0-2 .7-3.1 2.4-3.1 1.8 0 2.5 1.1 2.5 3.1v2.2c0 2-.7 3.1-2.5 3.1s-2.4-1.2-2.4-3.1v-2.2zm5.1 18c0 2-.7 3.4-2.7 3.4-1.9 0-2.6-1.4-2.6-3.4v-5.3c0-2 .7-3.3 2.6-3.3 2 0 2.7 1.4 2.7 3.3v5.3z"/>
    <g fill="#FFF">
      <path d="M111.8 79.8L95.4 95.4c-.6.6-.9 1.1-.9 2.3v43.6c0 .5.4.9.9.9h16.9c.5 0 .9-.4.9-.9V80.2c.1-.6-.3-1.5-1.4-.4M64.7 100l-16.4 15.6c-.6.6-.9 1.1-.9 2.3v23.3c0 .5.4.9.9.9h16.9c.5 0 .9-.4.9-.9v-40.8c.1-.5-.3-1.4-1.4-.4"/>
      <path d="M119.3 60.9l-.1-.4-.3-.1h-.2l-12.5 2.8h-.2l-.2.1c-.2.2-.2.5 0 .7l.1.1 2.9 2.9-28.4 28.4-13.1-13.1h-.5l-3.6 3.6-21 21v.5l3.6 3.6h.5l20.8-20.7 9.5 9.5 3.6 3.6h.5l32.2-32.2 3 3c.2.2.5.2.7 0l.1-.3 2.8-12.8-.2-.2z"/>
      <path d="M88.4 102.8l-7.9 8H80l-7.2-7.3c-1.3-1.3-1.6-.2-1.6.3v37.6c0 .5.4.9.9.9H89c.5 0 .9-.4.9-.9v-38.2c0-.7-.4-1.6-1.5-.4"/>
    </g>
    <path fill="#FFF" d="M50 17.6v6.1c0 2-.8 3.5-3.2 3.5h-3.4V14.1h3.4c2.4 0 3.2 1.5 3.2 3.5zm-3.5 7.8c.9 0 1.3-.5 1.3-1.3v-6.9c0-.8-.3-1.3-1.3-1.3h-.9v9.5h.9zm4.9-11.3h5.3v1.8h-3.1v3.8h2.2v1.8h-2.2v4h3.1v1.8h-5.3V14.1zm6.4 9.7v-6.4c0-2.1 1-3.5 3.3-3.5 2.4 0 3.1 1.4 3.1 3.3v1.6h-2V17c0-.8-.3-1.3-1.1-1.3s-1.1.6-1.1 1.4v7.1c0 .8.3 1.4 1.1 1.4s1.1-.5 1.1-1.3v-2.4h2v2.3c0 1.9-.8 3.3-3.1 3.3-2.3-.1-3.3-1.7-3.3-3.7zm7.8-9.7h5.3v1.8h-3.1v3.8H70v1.8h-2.2v4h3.1v1.8h-5.3V14.1zm8.4 4.8v8.3h-1.9V14.1h2.2l2.4 7.5v-7.5h1.8v13.1h-1.9L74 18.9zm5.7-4.8h5.9v1.8h-1.8v11.3h-2.2V15.9h-1.8v-1.8h-.1zm14 5l-1.2 8.1h-2.1l-1.8-13.1h2.1l1 8.3 1.1-8.3h1.8l1.2 8.3 1-8.3h1.9L97 27.2h-2l-1.3-8.1zm5.9 4.7v-6.4c0-2.1 1-3.5 3.3-3.5s3.4 1.5 3.4 3.5v6.4c0 2-1 3.5-3.4 3.5-2.3.1-3.3-1.5-3.3-3.5zm4.4.4v-7.1c0-.8-.3-1.4-1.1-1.4s-1.1.6-1.1 1.4v7.1c0 .8.3 1.4 1.1 1.4.8-.1 1.1-.6 1.1-1.4zm5.9-3v6h-2.2V14.1h3.2c2.2 0 3 1.1 3 2.9v1.7c0 1.4-.5 2.2-1.8 2.5l2.1 6h-2.3l-2-6zm0-5.3V20h.7c.8 0 1.1-.4 1.1-1.1V17c0-.7-.3-1.1-1.1-1.1h-.7zm7.6 4.9v6.4h-2.2V14.1h2.2v5.8l2.4-5.8h2.2l-2.6 5.9 2.6 7.2h-2.3l-2.3-6.4zm7.7 6.4l2.5-13.1h2.5l2.5 13.1h-2.3l-.4-2.4h-2.3l-.4 2.4h-2.1zM128 23h1.8l-.9-5.3-.9 5.3zm7.3-4.1v8.3h-1.9V14.1h2.2l2.4 7.5v-7.5h1.8v13.1h-1.9l-2.6-8.3zm12.6-1.3v6.1c0 2-.8 3.5-3.2 3.5h-3.4V14.1h3.4c2.4 0 3.2 1.5 3.2 3.5zm-3.5 7.8c.9 0 1.3-.5 1.3-1.3v-6.9c0-.8-.3-1.3-1.3-1.3h-.9v9.5h.9zM43.4 33.4h5.3v1.8h-3.1V39h2.2v1.8h-2.2v4h3.1v1.8h-5.3V33.4zm6.2 9.7v-6.4c0-2.1 1-3.5 3.3-3.5 2.4 0 3.1 1.4 3.1 3.3v1.6h-2v-1.7c0-.8-.3-1.3-1.1-1.3s-1.1.6-1.1 1.4v7.1c0 .8.3 1.4 1.1 1.4s1.1-.5 1.1-1.3v-2.4h2v2.3c0 1.9-.8 3.3-3.1 3.3-2.3-.2-3.3-1.7-3.3-3.8zm7.6 0v-6.4c0-2.1 1-3.5 3.3-3.5s3.4 1.5 3.4 3.5v6.4c0 2-1 3.5-3.4 3.5-2.2.1-3.3-1.4-3.3-3.5zm4.5.4v-7.1c0-.8-.3-1.4-1.1-1.4s-1.1.6-1.1 1.4v7.1c0 .8.3 1.4 1.1 1.4.8-.1 1.1-.6 1.1-1.4zm5.4-5.2v8.3h-1.9V33.5h2.2l2.4 7.5v-7.5h1.8v13.1h-1.9l-2.6-8.3zm5.8 4.8v-6.4c0-2.1 1-3.5 3.3-3.5s3.4 1.5 3.4 3.5v6.4c0 2-1 3.5-3.4 3.5-2.3.1-3.3-1.4-3.3-3.5zm4.4.4v-7.1c0-.8-.3-1.4-1.1-1.4s-1.1.6-1.1 1.4v7.1c0 .8.3 1.4 1.1 1.4.8-.1 1.1-.6 1.1-1.4zm9.6-5.5l-1.6 8.5h-1L82.7 38v8.5h-1.8V33.4h2.6l1.4 7.4 1.3-7.4H89v13.1h-2l-.1-8.5zm3.3-4.6h2.2v13.1h-2.2V33.4zm3.4 9.7v-6.4c0-2.1 1-3.5 3.3-3.5 2.4 0 3.1 1.4 3.1 3.3v1.6h-2v-1.7c0-.8-.3-1.3-1.1-1.3s-1.1.6-1.1 1.4v7.1c0 .8.3 1.4 1.1 1.4s1.1-.5 1.1-1.3v-2.4h2v2.3c0 1.9-.8 3.3-3.1 3.3-2.3-.2-3.3-1.7-3.3-3.8zm13.6-3.6h3.1v7h-1.6v-1.4c-.3 1-.9 1.6-2.1 1.6-1.9 0-2.8-1.5-2.8-3.5v-6.4c0-2.1 1-3.5 3.3-3.5 2.4 0 3.2 1.4 3.2 3.3v1.2h-2v-1.3c0-.8-.3-1.3-1.1-1.3s-1.1.6-1.1 1.4v7.1c0 .8.3 1.4 1.1 1.4.7 0 1.1-.4 1.1-1.3v-2.3h-1v-2h-.1zm6.8 1v6h-2.2V33.4h3.2c2.2 0 3 1.1 3 2.9V38c0 1.4-.5 2.2-1.8 2.5l2.1 6H116l-2-6zm0-5.3v4.1h.7c.8 0 1.1-.4 1.1-1.1v-1.9c0-.7-.3-1.1-1.1-1.1h-.7zm5 7.9v-6.4c0-2.1 1-3.5 3.3-3.5s3.4 1.5 3.4 3.5v6.4c0 2-1 3.5-3.4 3.5-2.3.1-3.3-1.4-3.3-3.5zm4.5.4v-7.1c0-.8-.3-1.4-1.1-1.4s-1.1.6-1.1 1.4v7.1c0 .8.3 1.4 1.1 1.4.8-.1 1.1-.6 1.1-1.4zm7.9-5.1l-1.2 8.1h-2.1l-1.8-13.1h2.1l1 8.3 1.1-8.3h1.8l1.2 8.3 1-8.3h1.9l-1.7 13.1h-2.1l-1.2-8.1zm5.8-5h5.9v1.8h-1.8v11.3H139V35.2h-1.8v-1.8zm10.9 7.3H146v5.8h-2.2V33.4h2.2V39h2.1v-5.6h2.2v13.1h-2.2v-5.8z"/>
  </g>
</svg>
