<svg xmlns="http://www.w3.org/2000/svg" width="162" height="161" viewBox="0 0 162 161">
  <g fill="none" fill-rule="nonzero">
    <path fill="#C5192D" d="M.8 0h160.9v160.9H.8z"/>
    <path fill="#FFF" d="M26 46h5.2v-5.3h2.2v-4.3h-2.2V13.5h-5.4l-9.4 23.8v3.3H26V46zm-4.8-9.6L26.1 23v13.4h-4.9z"/>
    <g fill="#FFF">
      <path d="M71.4 86.3L42.5 69.6v54l28.9 8.7v-46zm3.1.1v45.9l29.1-8.8V69.6L74.5 86.4zm51.7-18.1c0-1.9-1.5-3.4-3.4-3.4a3.4 3.4 0 0 0-3.4 3.4V72h6.8v-3.7zm-5.9 54.3h-.9l3.4 11.9 3.4-11.9h-.8.8v-48h-6.8v48h.9z"/>
      <path d="M109.8 72l-3.1-2.5V125l-32.1 10.4h-3.2l-32-8.9v-57L36.3 72v56.6l34.9 9.7h3.6l32.1-10.2 2.9-.9z"/>
    </g>
    <path fill="#FFF" d="M46.8 32.8h5.3v1.8H49v3.8h2.2v1.8H49v4h3.1V46h-5.3V32.8zM60 36.3v6.1c0 2-.8 3.5-3.2 3.5h-3.4V32.8h3.4c2.4 0 3.2 1.5 3.2 3.5zm-3.5 7.8c.9 0 1.3-.5 1.3-1.3v-6.9c0-.8-.3-1.3-1.3-1.3h-.9v9.5h.9zm11.4-11.3v9.9c0 2-.9 3.4-3.1 3.4-2.3 0-3.3-1.3-3.3-3.4v-9.9h2.2V43c0 .8.3 1.3 1.1 1.3s1.1-.5 1.1-1.3V32.8h2zm1.4 9.7v-6.4c0-2.1 1-3.5 3.3-3.5 2.4 0 3.1 1.4 3.1 3.3v1.6h-2v-1.7c0-.8-.3-1.3-1.1-1.3s-1.1.6-1.1 1.4V43c0 .8.3 1.4 1.1 1.4s1.1-.5 1.1-1.3v-2.4h2V43c0 1.9-.8 3.3-3.1 3.3-2.3-.2-3.3-1.7-3.3-3.8zm7.2 3.4L79 32.8h2.5L84 45.9h-2.3l-.4-2.4H79l-.4 2.4h-2.1zm2.7-4.1H81l-.9-5.3-.9 5.3zm4.5-9h5.9v1.8h-1.8v11.3h-2.2V34.6h-1.8v-1.8h-.1zm7.1 0H93v13.1h-2.2V32.8zm3.7 9.7v-6.4c0-2.1 1-3.5 3.3-3.5s3.4 1.5 3.4 3.5v6.4c0 2-1 3.5-3.4 3.5-2.3.1-3.3-1.4-3.3-3.5zm4.5.4v-7.1c0-.8-.3-1.4-1.1-1.4s-1.1.6-1.1 1.4v7.1c0 .8.3 1.4 1.1 1.4.7-.1 1.1-.6 1.1-1.4zm5.5-5.2V46h-1.9V32.9h2.2l2.4 7.5v-7.5h1.8V46h-1.9l-2.6-8.3zM49.3 27.5v-.9c-1.8-.3-2.5-1.6-2.5-3.4v-6.4c0-2.1 1-3.5 3.3-3.5s3.4 1.5 3.4 3.5v6.4c0 1.4-.5 2.6-1.6 3.1l1.6.3v1.6l-4.2-.7zm2-3.8v-7.2c0-.8-.3-1.4-1.1-1.4s-1.1.6-1.1 1.4v7.2c0 .8.3 1.4 1.1 1.4.7 0 1.1-.6 1.1-1.4zm10-10.2v9.9c0 2-.9 3.4-3.1 3.4-2.3 0-3.3-1.3-3.3-3.4v-9.9h2.2v10.2c0 .8.3 1.3 1.1 1.3s1.1-.5 1.1-1.3V13.5h2zm.9 13.1l2.5-13.1h2.5l2.5 13.1h-2.3l-.4-2.4h-2.3l-.4 2.4h-2.1zm2.7-4.1h1.8l-.9-5.3-.9 5.3zm5.8-9h2.2v11.3h2.6v1.8h-4.8V13.5zm5.9 0h2.2v13.1h-2.2V13.5zm3.3 0h5.9v1.8H84v11.3h-2.2V15.3H80l-.1-1.8zm11.2 8.1v5h-2.2v-5l-2.5-8.1h2.3l1.3 5 1.3-5h2.1l-2.3 8.1z"/>
  </g>
</svg>
