<svg xmlns="http://www.w3.org/2000/svg" width="162" height="161" viewBox="0 0 162 161">
  <g fill="none" fill-rule="nonzero">
    <path fill="#4C9F38" d="M.5 0h160.9v160.9H.5z"/>
    <path fill="#FFF" d="M23.4 46.4c5.5 0 7.9-2.9 7.9-7.4v-4.8c0-3-1.3-4.9-4-5.5 2.2-.7 3.7-2.5 3.7-5.3v-2.8c0-4.6-2.2-7.4-7.2-7.4-5.6 0-7.6 3.3-7.6 8.1v2.9h5v-3.3c0-2 .6-3.2 2.3-3.2 1.7 0 2.3 1.1 2.3 2.9v3.5c0 1.7-1.1 2.6-2.9 2.6h-2.1v4.2h2.3c1.9 0 2.7.9 2.7 2.6v5.4c0 1.7-.8 2.9-2.4 2.9-1.9 0-2.5-1.2-2.5-3.2V34h-5v4.3c0 4.9 2 8.1 7.5 8.1"/>
    <g fill="#FFF">
      <path d="M134.9 100.6c0-4.5-2.9-8.2-7.3-8.2-2.2 0-4.9 2.4-6.3 3.9-1.4-1.5-3.9-3.9-6.1-3.9-4.4 0-7.5 3.7-7.5 8.2 0 2.3.9 4.3 2.3 5.8l11.3 11.3 11.3-11.3a8.4 8.4 0 0 0 2.3-5.8z"/>
      <path d="M86.9 136.1c-1-.1-1.7-.7-1.8-1.5l-5.7-33.4-8.7 16.1c-.4.7-1.2 1.1-2 .9-.8-.1-1.4-.8-1.5-1.6l-3.7-25.8-6.7 15.1c-.3.7-1 1.1-1.7 1.1H28.9a1.9 1.9 0 1 1 0-3.8h25l8.9-19.9c.3-.8 1.1-1.2 1.9-1.1a2 2 0 0 1 1.6 1.6l3.8 26.6 8.6-15.9c.4-.7 1.1-1.1 1.9-.9.8.1 1.4.7 1.5 1.5l5.3 30.9 19.3-64.2c.2-.7.9-1.3 1.6-1.3.8-.1 1.5.4 1.8 1l10.2 21.1c.4.9.1 2-.9 2.5-.9.4-2 .1-2.5-.9l-8.1-16.8-20.2 67.2c-.2 1-.9 1.5-1.7 1.5z"/>
    </g>
    <path fill="#FFF" d="M49.8 19.6h3.1v7h-1.6v-1.4c-.3 1-.9 1.6-2.1 1.6-1.9 0-2.8-1.5-2.8-3.5v-6.4c0-2.1 1-3.5 3.3-3.5 2.4 0 3.2 1.4 3.2 3.3v1.2h-2v-1.3c0-.8-.3-1.3-1.1-1.3s-1.1.6-1.1 1.4v7.1c0 .8.3 1.4 1.1 1.4.7 0 1.1-.4 1.1-1.3v-2.3h-1v-2h-.1zm4.6 3.7v-6.4c0-2.1 1-3.5 3.3-3.5s3.4 1.5 3.4 3.5v6.4c0 2-1 3.5-3.4 3.5-2.3 0-3.3-1.5-3.3-3.5zm4.5.3v-7.1c0-.8-.3-1.4-1.1-1.4s-1.1.6-1.1 1.4v7.1c0 .8.3 1.4 1.1 1.4.7 0 1.1-.6 1.1-1.4zm3.6-.3v-6.4c0-2.1 1-3.5 3.3-3.5s3.4 1.5 3.4 3.5v6.4c0 2-1 3.5-3.4 3.5-2.3 0-3.3-1.5-3.3-3.5zm4.5.3v-7.1c0-.8-.3-1.4-1.1-1.4s-1.1.6-1.1 1.4v7.1c0 .8.3 1.4 1.1 1.4s1.1-.6 1.1-1.4zM77.3 17v6.1c0 2-.8 3.5-3.2 3.5h-3.4V13.5h3.4c2.3 0 3.2 1.5 3.2 3.5zm-3.5 7.8c.9 0 1.3-.5 1.3-1.3v-6.9c0-.8-.3-1.3-1.3-1.3h-.9v9.5h.9zm12.3-3.9H84v5.8h-2.2V13.6H84v5.6h2.1v-5.6h2.2v13.1h-2.2v-5.8zm3.8-7.4h5.3v1.8h-3.1v3.8h2.2v1.8h-2.2v4h3.1v1.8h-5.3V13.5zm6.3 13.2l2.5-13.1h2.5l2.5 13.1h-2.3l-.4-2.4h-2.3l-.4 2.4h-2.1zm2.8-4.2h1.8l-.9-5.3-.9 5.3zm5.8-9h2.2v11.3h2.6v1.8h-4.8V13.5zm4.5 0h5.9v1.8h-1.8v11.3h-2.2V15.3h-1.8v-1.8h-.1zm11.5 7.4h-2.1v5.8h-2.2V13.6h2.2v5.6h2.1v-5.6h2.2v13.1h-2.2v-5.8zM46.1 45.9l2.5-13.1h2.5l2.5 13.1h-2.3l-.4-2.4h-2.3l-.4 2.4h-2.1zm2.8-4.1h1.8l-.9-5.3-.9 5.3zm7.5-4.1V46h-1.9V32.9h2.2l2.4 7.5v-7.5h1.8V46H59l-2.6-8.3zm12.7-1.4v6.1c0 2-.8 3.5-3.2 3.5h-3.4V32.8h3.4c2.4 0 3.2 1.5 3.2 3.5zm-3.5 7.8c.9 0 1.3-.5 1.3-1.3v-6.9c0-.8-.3-1.3-1.3-1.3h-.9v9.5h.9zm12-6.3l-1.2 8.1h-2.1l-1.8-13.1h2.1l1 8.3 1.1-8.3h1.8l1.2 8.3 1-8.3h1.9l-1.7 13.1h-2.1l-1.2-8.1zm6.2-5h5.3v1.8H86v3.8h2.2v1.8H86v4h3.1V46h-5.3V32.8zm6.7 0h2.2v11.3h2.6v1.8h-4.8V32.8zm6 0h2.2v11.3h2.6v1.8h-4.8V32.8zm4.6 5.4h3.1V40h-3.1v-1.8zm4.4-5.4h3.2c2.2 0 2.9 1 2.9 2.9V37c0 1.1-.4 1.8-1.3 2.1 1.1.3 1.6 1 1.6 2.2V43c0 1.9-.8 2.9-3 2.9h-3.4V32.8zm2.2 5.5h.8c.7 0 1-.4 1-1.1v-1.6c0-.7-.3-1.1-1.1-1.1h-.8l.1 3.8zm0 1.7v4.1h1c.7 0 1.1-.4 1.1-1.1v-2c0-.7-.3-1.1-1.1-1.1h-1v.1zm5.6-7.2h5.3v1.8h-3.1v3.8h2.2v1.8h-2.2v4h3.1V46h-5.3V32.8zm6.6 0h2.2v13.1h-2.2V32.8zm5.7 4.9V46h-1.9V32.9h2.2l2.4 7.5v-7.5h1.8V46h-1.9l-2.6-8.3zm9.4 1.2h3.1v7h-1.6v-1.4c-.3 1-.9 1.6-2.1 1.6-1.9 0-2.8-1.5-2.8-3.5v-6.4c0-2.1 1-3.5 3.3-3.5 2.4 0 3.2 1.4 3.2 3.3v1.2h-2v-1.3c0-.8-.3-1.3-1.1-1.3s-1.1.6-1.1 1.4v7.1c0 .8.3 1.4 1.1 1.4.7 0 1.1-.4 1.1-1.3v-2.3h-1v-2h-.1z"/>
  </g>
</svg>
