<svg xmlns="http://www.w3.org/2000/svg" width="162" height="162" viewBox="0 0 162 162">
  <g fill="none" fill-rule="nonzero">
    <path fill="#FD9D24" d="M.7.6h160.9v160.9H.7z"/>
    <path fill="#FFF" d="M12.3 20v5.7l3.9-4v24.8h5.5V14.1h-4.4l-5 5.9zm12.4 0v5.7h.1l3.8-4v24.8h5.5V14.1h-4.4l-5 5.9zM27.3 123.1h24.2c.3 0 .6-.3.6-.6l-.2-.4-12-15.6-.1-.1a.8.8 0 0 0-.4-.2l-.4.2-.1.1-.1.1L27 122l-.2.2-.1.3c0 .3.3.6.6.6zm24.1 2.2H27.1c-.3 0-.6.3-.6.6v19c0 .3.3.6.6.6h7.8v-11.9c0-.3.3-.6.6-.6h7.2c.3 0 .6.3.6.6v11.9h8c.3 0 .6-.3.6-.6v-19c.1-.3-.1-.6-.5-.6zm83.8-5h-24c-.3 0-.6.3-.6.6v24.2c0 .3.3.6.6.6h24c.3 0 .6-.3.6-.6v-24.2c0-.3-.2-.6-.6-.6zm-13.1 15.9c0 .3-.3.6-.6.6h-7.2a.6.6 0 0 1-.6-.6v-4.4c0-.3.3-.6.6-.6h7.2c.3 0 .6.3.6.6v4.4zm0-8.1c0 .3-.3.6-.6.6h-7.2a.6.6 0 0 1-.6-.6v-4.4c0-.3.3-.6.6-.6h7.2c.3 0 .6.3.6.6v4.4zm11 8.1c0 .3-.3.6-.6.6h-7.2a.6.6 0 0 1-.6-.6v-4.4c0-.3.3-.6.6-.6h7.2c.3 0 .6.3.6.6v4.4zm0-8.1c0 .3-.3.6-.6.6h-7.2a.6.6 0 0 1-.6-.6v-4.4c0-.3.3-.6.6-.6h7.2c.3 0 .6.3.6.6v4.4zm-53.7-64H56c-.3 0-.6.3-.6.6V145c0 .3.3.6.6.6h23.5c.3 0 .6-.3.6-.6V64.7c-.1-.4-.3-.6-.7-.6zm-13.9 72.3c0 .2-.1.3-.3.3h-5.4c-.2 0-.3-.1-.3-.3v-6c0-.2.1-.3.3-.3h5.4c.2 0 .3.1.3.3v6zm0-13.8c0 .2-.1.3-.3.3h-5.4c-.2 0-.3-.1-.3-.3v-6c0-.2.1-.3.3-.3h5.4c.2 0 .3.1.3.3v6zm0-13.8c0 .2-.1.3-.3.3h-5.4c-.2 0-.3-.1-.3-.3v-6c0-.2.1-.3.3-.3h5.4c.2 0 .3.1.3.3v6zm0-13.7c0 .2-.1.3-.3.3h-5.4c-.2 0-.3-.1-.3-.3v-6c0-.2.1-.3.3-.3h5.4c.2 0 .3.1.3.3v6zm0-13.8c0 .2-.1.3-.3.3h-5.4c-.2 0-.3-.1-.3-.3v-6c0-.2.1-.3.3-.3h5.4c.2 0 .3.1.3.3v6zM76 136.4c0 .2-.1.3-.3.3h-5.4c-.2 0-.3-.1-.3-.3v-6c0-.2.1-.3.3-.3h5.4c.2 0 .3.1.3.3v6zm0-13.8c0 .2-.1.3-.3.3h-5.4c-.2 0-.3-.1-.3-.3v-6c0-.2.1-.3.3-.3h5.4c.2 0 .3.1.3.3v6zm0-13.8c0 .2-.1.3-.3.3h-5.4c-.2 0-.3-.1-.3-.3v-6c0-.2.1-.3.3-.3h5.4c.2 0 .3.1.3.3v6zm0-13.7c0 .2-.1.3-.3.3h-5.4c-.2 0-.3-.1-.3-.3v-6c0-.2.1-.3.3-.3h5.4c.2 0 .3.1.3.3v6zm0-13.8c0 .2-.1.3-.3.3h-5.4c-.2 0-.3-.1-.3-.3v-6c0-.2.1-.3.3-.3h5.4c.2 0 .3.1.3.3v6zm59.8 36.6c0 .3-.2.5-.5.5h-24.2c-.3 0-.5-.2-.5-.5v-4.8c0-.3.2-.5.5-.5h24.2c.3 0 .5.2.5.5v4.8zm-28-38.7c-.1-.3-.3-.4-.6-.4l-.3.1-.2.2-23.1 29.3-.1.1-.2.5v36c0 .3.3.6.6.6h23.5c.3 0 .6-.3.6-.6V79.4l-.2-.2zm-9.7 15.9l.2-.2 5.5-6.9.2-.2.5-.2c.3 0 .6.2.6.5v7.4c0 .4-.3.6-.6.7h-5.8c-.4 0-.6-.3-.6-.7a.3.3 0 0 1 0-.4zm-3.7 41c0 .3-.3.6-.6.6h-7a.6.6 0 0 1-.6-.6v-4.4c0-.3.3-.6.6-.6h7c.3 0 .6.3.6.6v4.4zm0-8c0 .3-.3.6-.6.6h-7a.6.6 0 0 1-.6-.6v-4.4c0-.3.3-.6.6-.6h7c.3 0 .6.3.6.6v4.4zm0-8.1c0 .3-.3.6-.6.6h-7a.6.6 0 0 1-.6-.6v-4.4c0-.3.3-.6.6-.6h7c.3 0 .6.3.6.6v4.4zm.1-17.8v9.6c0 .3-.3.6-.6.6h-7a.6.6 0 0 1-.6-.6v-1.5l.1-.1.1-.1c.9-1.3 4.9-6.3 6.6-8.3l.2-.2.5-.2c.3 0 .6.2.6.5v.3h.1zm10.7 33.9c0 .3-.3.6-.6.6h-7a.6.6 0 0 1-.6-.6v-4.4c0-.3.3-.6.6-.6h7c.3 0 .6.3.6.6v4.4zm0-8c0 .3-.3.6-.6.6h-7a.6.6 0 0 1-.6-.6v-4.4c0-.3.3-.6.6-.6h7c.3 0 .6.3.6.6v4.4zm0-8.1c0 .3-.3.6-.6.6h-7a.6.6 0 0 1-.6-.6v-4.4c0-.3.3-.6.6-.6h7c.3 0 .6.3.6.6v4.4zm0-8.1c0 .3-.3.6-.6.6h-7a.6.6 0 0 1-.6-.6v-4.4c0-.3.3-.6.6-.6h7c.3 0 .6.3.6.6v4.4zm0-8.1c0 .3-.3.6-.6.6h-7a.6.6 0 0 1-.6-.6v-4.4c0-.3.3-.6.6-.6h7c.3 0 .6.3.6.6v4.4zM44.7 24.4v-1.8h2.1v1.8c0 .7.3 1.2 1.1 1.2.7 0 1-.5 1-1.2v-.5c0-.8-.3-1.2-1-1.9l-1.3-1.3c-1.3-1.2-1.8-2-1.8-3.5v-.4c0-1.6 1-2.9 3.1-2.9 2.2 0 3.1 1.1 3.1 3V18h-2v-1.1c0-.8-.3-1.1-1-1.1-.6 0-1 .3-1 1.1v.3c0 .7.4 1.2 1 1.8l1.4 1.4c1.2 1.2 1.8 2 1.8 3.4v.6c0 1.8-1 3.1-3.2 3.1s-3.3-1.4-3.3-3.1zm13.7-10.3V24c0 2-.9 3.4-3.1 3.4-2.3 0-3.3-1.3-3.3-3.4v-9.9h2.2v10.2c0 .8.3 1.3 1.1 1.3s1.1-.5 1.1-1.3V14.1h2zm1.2 10.3v-1.8h2.1v1.8c0 .7.3 1.2 1.1 1.2.7 0 1-.5 1-1.2v-.5c0-.8-.3-1.2-1-1.9l-1.3-1.3c-1.3-1.2-1.8-2-1.8-3.5v-.4c0-1.6.9-2.9 3.1-2.9s3.1 1.1 3.1 3V18h-2v-1.1c0-.8-.3-1.1-1-1.1-.6 0-1 .3-1 1.1v.3c0 .7.4 1.2 1 1.8l1.4 1.4c1.2 1.2 1.8 2 1.8 3.4v.6c0 1.8-1 3.1-3.2 3.1-2.5-.1-3.3-1.4-3.3-3.1zm6.8-10.3h5.9v1.8h-1.8v11.3h-2.2V15.9h-1.8v-1.8h-.1zm5.5 13.1l2.5-13.1h2.5l2.5 13.1h-2.3l-.4-2.4h-2.3l-.4 2.4h-2.1zm2.8-4.2h1.8l-.9-5.3-.9 5.3zm5.6-8.9h2.2v13.1h-2.2V14.1zm5.3 4.8v8.3h-1.9V14.1h2.2l2.4 7.5v-7.5h1.8v13.1h-1.9l-2.6-8.3zm5.3 8.3l2.5-13.1h2.5l2.5 13.1h-2.3l-.4-2.4h-2.3l-.4 2.4h-2.1zm2.8-4.2h1.8l-.9-5.3-.9 5.3zm5.4-8.9h3.2c2.2 0 2.9 1 2.9 2.9v1.3c0 1.1-.4 1.8-1.3 2.1 1.1.3 1.6 1 1.6 2.2v1.7c0 1.9-.8 2.9-3 2.9h-3.4V14.1zm2.2 5.5h.8c.7 0 1-.4 1-1.1v-1.6c0-.7-.3-1.1-1.1-1.1h-.8l.1 3.8zm0 1.7v4.1h1c.7 0 1.1-.4 1.1-1.1v-2c0-.7-.3-1.1-1.1-1.1h-1v.1zm5.2-7.2h2.2v11.3h2.6v1.8h-4.8V14.1zm5.7 0h5.3v1.8h-3.1v3.8h2.2v1.8h-2.2v4h3.1v1.8h-5.3V14.1zm9 9.7v-6.4c0-2.1 1-3.5 3.3-3.5 2.4 0 3.1 1.4 3.1 3.3v1.6h-2V17c0-.8-.3-1.3-1.1-1.3s-1.1.6-1.1 1.4v7.1c0 .8.3 1.4 1.1 1.4s1.1-.5 1.1-1.3v-2.4h2v2.3c0 1.9-.8 3.3-3.1 3.3-2.4-.1-3.3-1.7-3.3-3.7zm7.4-9.7h2.2v13.1h-2.2V14.1zm3 0h5.9v1.8h-1.8v11.3h-2.2V15.9h-1.8v-1.8h-.1zm6.8 0h2.2v13.1h-2.2V14.1zm3.4 0h5.3v1.8H144v3.8h2.2v1.8H144v4h3.1v1.8h-5.3V14.1zm5.8 10.3v-1.8h2.1v1.8c0 .7.3 1.2 1.1 1.2.7 0 1-.5 1-1.2v-.5c0-.8-.3-1.2-1-1.9l-1.3-1.3c-1.3-1.2-1.8-2-1.8-3.5v-.4c0-1.6 1-2.9 3.1-2.9 2.2 0 3.1 1.1 3.1 3V18h-2v-1.1c0-.8-.3-1.1-1-1.1-.6 0-1 .3-1 1.1v.3c0 .7.4 1.2 1 1.8l1.4 1.4c1.2 1.2 1.8 2 1.8 3.4v.6c0 1.8-1 3.1-3.2 3.1s-3.3-1.4-3.3-3.1zM44.7 46.5l2.5-13.1h2.5l2.5 13.1H50l-.4-2.4h-2.3l-.4 2.4h-2.2zm2.8-4.1h1.8l-.9-5.3-.9 5.3zm7.5-4.1v8.3h-1.9V33.5h2.2l2.4 7.5v-7.5h1.8v13.1h-1.9L55 38.3zm12.4-1.4V43c0 2-.8 3.5-3.2 3.5h-3.4V33.4h3.4c2.3 0 3.2 1.5 3.2 3.5zm-3.5 7.8c.9 0 1.3-.5 1.3-1.3v-6.9c0-.8-.3-1.3-1.3-1.3H63v9.5h.9zm6.7-1.6v-6.4c0-2.1 1-3.5 3.3-3.5 2.4 0 3.1 1.4 3.1 3.3v1.6h-2v-1.7c0-.8-.3-1.3-1.1-1.3s-1.1.6-1.1 1.4v7.1c0 .8.3 1.4 1.1 1.4s1.1-.5 1.1-1.3v-2.4h2v2.3c0 1.9-.8 3.3-3.1 3.3-2.4-.2-3.3-1.7-3.3-3.8zm7.6 0v-6.4c0-2.1 1-3.5 3.3-3.5s3.4 1.5 3.4 3.5v6.4c0 2-1 3.5-3.4 3.5-2.3.1-3.3-1.4-3.3-3.5zm4.4.4v-7.1c0-.8-.3-1.4-1.1-1.4s-1.1.6-1.1 1.4v7.1c0 .8.3 1.4 1.1 1.4.8-.1 1.1-.6 1.1-1.4zm9.6-5.5l-1.6 8.5h-1L88 38v8.5h-1.8V33.4h2.6l1.4 7.4 1.3-7.4h2.8v13.1h-2l-.1-8.5zm9.3 0l-1.6 8.5h-1L97.3 38v8.5h-1.8V33.4h2.6l1.4 7.4 1.3-7.4h2.8v13.1h-2V38h-.1zm9.7-4.6v9.9c0 2-.9 3.4-3.1 3.4-2.3 0-3.3-1.3-3.3-3.4v-9.9h2.2v10.2c0 .8.3 1.3 1.1 1.3s1.1-.5 1.1-1.3V33.4h2zm3 4.9v8.3h-1.9V33.5h2.2l2.4 7.5v-7.5h1.8v13.1h-1.9l-2.6-8.3zm5.8-4.9h2.2v13.1H120V33.4zm3.2 0h5.9v1.8h-1.8v11.3H125V35.2h-1.8v-1.8zm6.9 0h2.2v13.1h-2.2V33.4zm3.4 0h5.3v1.8h-3.1V39h2.2v1.8h-2.2v4h3.1v1.8h-5.3V33.4zm6.2 10.3v-1.8h2.1v1.8c0 .7.3 1.2 1.1 1.2.7 0 1-.5 1-1.2v-.5c0-.8-.3-1.2-1-1.9l-1.3-1.3c-1.3-1.2-1.8-2-1.8-3.5v-.4c0-1.6.9-2.9 3.1-2.9s3.1 1.1 3.1 3v1.1h-2v-1.1c0-.8-.3-1.1-1-1.1-.6 0-1 .3-1 1.1v.3c0 .7.4 1.2 1 1.8l1.4 1.4c1.2 1.2 1.8 2 1.8 3.4v.6c0 1.8-1 3.1-3.2 3.1-2.4-.1-3.3-1.4-3.3-3.1z"/>
  </g>
</svg>
