<svg xmlns="http://www.w3.org/2000/svg" width="161" height="162" viewBox="0 0 161 162">
  <g fill="none" fill-rule="nonzero">
    <path fill="#0A97D9" d="M.1.9H161v160.9H.1z"/>
    <path fill="#FFF" d="M21.1 14.5v32.4h-5.5V22.1l-3.8 4h-.1v-5.7l5-5.9h4.4zm16.6 32.4v-5.3h2.2v-4.3h-2.2V14.4h-5.4l-9.4 23.8v3.4h9.6v5.3h5.2zm-10-9.5L32.6 24v13.4h-4.9zm96.3 81c-2-2.7-15.1-19.4-33.4-19.4-15.9 0-33 14.4-33 14.4S51.2 100.3 38.1 99h-.3c-.3 0-.5.3-.5.5l.2.5a40 40 0 0 1 6 18.7c0 8-4.3 16-6 18.8l-.1.2-.1.3c0 .3.2.5.5.5h.2c13.1-1.2 19.6-14.4 19.6-14.4s17 14.4 33 14.4c18.3 0 31.4-16.7 33.4-19.4l.1-.2v-.4l-.1-.1zm-23.3 2.5c-3 0-5.4-2.4-5.4-5.4 0-3 2.4-5.3 5.4-5.3a5.4 5.4 0 1 1 0 10.7zM37.6 67.6h-.1c-.3 0-.5.2-.5.5v3.7l.2.4c8.9 7.7 17.2.5 19.2-1.4l.1-.1.3-.1.4.1c10 9.5 20.5 1.8 22.7 0l.2-.2h.4l.2.2c2.2 1.8 12.7 9.5 22.7 0l.4-.1.3.1.1.1c1.9 1.9 10.3 9.1 19.2 1.4l.2-.4v-3.7c0-.3-.2-.5-.5-.5h-.1l-.3.1a16 16 0 0 1-18.8-2.6l-.2-.2h-.4l-.3.2c-2.3 1.7-12.8 8.8-22.1.1l-.1-.1-.4-.2-.4.2-.1.1c-9.3 8.7-19.8 1.6-22.1-.1-.1-.1-.1-.2-.3-.2h-.4l-.2.2c-7.7 7.3-16.1 4-18.8 2.6l-.5-.1zM56.3 84l.1-.1.3-.1.4.1c10 9.5 20.5 1.8 22.7 0l.2-.2h.4l.2.2c2.2 1.8 12.7 9.5 22.7 0l.4-.1.3.1.1.1c1.9 1.9 10.3 9.1 19.2 1.4l.2-.4v-3.7c0-.3-.2-.5-.5-.5h-.1l-.3.1a16 16 0 0 1-18.8-2.6l-.2-.2-.2-.1h-.2l-.3.2c-2.3 1.7-12.8 8.8-22.1.1l-.1-.1-.4-.1-.4.1-.1.1c-9.3 8.7-19.8 1.6-22.1-.1-.1-.1-.1-.2-.3-.2h-.2l-.2.1-.2.2A16 16 0 0 1 38 80.9l-.3-.1h-.1c-.3 0-.5.2-.5.5V85l.2.4c8.7 7.7 17.1.5 19-1.4zm-4.8-69.6h2.2v11.3h2.6v1.8h-4.8V14.4zm5.9 0h2.2v13.1h-2.2V14.4zm3.6 0h5.2v1.8h-3V20h2.2v1.8h-2.2v5.8H61V14.4zm6.2 0h5.3v1.8h-3.1V20h2.2v1.8h-2.2v4h3.1v1.8h-5.3V14.4zm9.4 0h3.2c2.2 0 2.9 1 2.9 2.9v1.3c0 1.1-.4 1.8-1.3 2.1 1.1.3 1.6 1 1.6 2.2v1.7c0 1.9-.8 2.9-3 2.9h-3.4V14.4zm2.2 5.6h.8c.7 0 1-.4 1-1.1v-1.6c0-.7-.3-1.1-1.1-1.1h-.8V20h.1zm0 1.7v4.1h1c.7 0 1.1-.4 1.1-1.1v-2c0-.7-.3-1.1-1.1-1.1l-1 .1zm5.2-7.3h5.3v1.8h-3.1V20h2.2v1.8h-2.2v4h3.1v1.8H84V14.4zm6.7 0h2.2v11.3h2.6v1.8h-4.8V14.4zm5.7 9.8v-6.4c0-2.1 1-3.5 3.3-3.5s3.4 1.5 3.4 3.5v6.4c0 2-1 3.5-3.4 3.5-2.3 0-3.3-1.5-3.3-3.5zm4.4.3v-7.1c0-.8-.3-1.4-1.1-1.4s-1.1.6-1.1 1.4v7.1c0 .8.3 1.4 1.1 1.4s1.1-.6 1.1-1.4zm8.1-5.1l-1.2 8.1h-2.1l-1.8-13.1h2.1l1 8.3 1.1-8.3h1.8l1.2 8.3 1-8.3h1.9l-1.7 13.1h-2.1l-1.2-8.1zM56.3 38.7l-1.2 8.1H53l-1.8-13.1h2.1l1 8.3 1.1-8.3h1.8l1.2 8.3 1-8.3h1.9l-1.7 13.1h-2.1l-1.2-8.1zm4.9 8.2l2.5-13.1h2.5l2.5 13.1h-2.3l-.4-2.4h-2.3l-.4 2.4h-2.1zm2.7-4.2h1.8l-.9-5.3-.9 5.3zm4.3-9h5.9v1.8h-1.8v11.3h-2.2V35.5h-1.8v-1.8h-.1zm6.9 0h5.3v1.8h-3.1v3.8h2.2v1.8h-2.2v4h3.1v1.8h-5.3V33.7zm8.7 7.1v6h-2.2V33.7h3.2c2.2 0 3 1.1 3 2.9v1.7c0 1.4-.5 2.2-1.8 2.5l2.1 6h-2.3l-2-6zm0-5.3v4.1h.7c.8 0 1.1-.4 1.1-1.1v-1.9c0-.7-.3-1.1-1.1-1.1h-.7z"/>
  </g>
</svg>
