<svg xmlns="http://www.w3.org/2000/svg" width="162" height="162" viewBox="0 0 162 162">
  <g fill="none" fill-rule="nonzero">
    <path fill="#00689D" d="M.8.9h160.9v160.9H.8z"/>
    <path fill="#FFF" d="M13.2 20.3V26h.1l3.8-4v24.9h5.5V14.4h-4.4l-5 5.9zm28.5 18.8v-4.8c0-5.3-2.1-8-6-8a4.8 4.8 0 0 0-4.5 2.6v-7c0-2 .6-3.4 2.6-3.4s2.5 1.1 2.5 3.2v2.2h5v-1.7c0-4.8-1.6-8.1-7.6-8.1-5.7 0-7.9 3.7-7.9 8.8v15.8c0 5 2.2 8.7 7.9 8.7 5.7-.1 8-3.3 8-8.3zm-5.4.5c0 2.1-.8 3.3-2.6 3.3s-2.5-1.2-2.5-3.3v-5.9c.1-1.8.9-3 2.6-3 1.9 0 2.6 1.1 2.6 3.3l-.1 5.6zM52.2 14.4h3.3c2.2 0 3 1.1 3 2.9v2.8c0 1.8-.8 3-3 3h-1.1v4.5h-2.2V14.4zm2.2 1.8v5.2h.8c.8 0 1.1-.4 1.1-1.1v-3c0-.7-.3-1.1-1.1-1.1h-.8zm5.2-1.8h5.3v1.8h-3.1V20H64v1.8h-2.2v4h3.1v1.8h-5.3V14.4zm6.2 13.2l2.5-13.1h2.5l2.5 13.1H71l-.4-2.4h-2.3l-.4 2.4h-2.1zm2.8-4.2h1.8l-.9-5.3-.9 5.3zm5.5.8v-6.4c0-2.1 1-3.5 3.3-3.5 2.4 0 3.1 1.4 3.1 3.3v1.6h-2v-1.7c0-.8-.3-1.3-1.1-1.3s-1.1.6-1.1 1.4v7.1c0 .8.3 1.4 1.1 1.4s1.1-.5 1.1-1.3v-2.4h2v2.3c0 1.9-.8 3.3-3.1 3.3-2.3-.3-3.3-1.8-3.3-3.8zm7.8-9.8h5.3v1.8h-3.1V20h2.2v1.8h-2.2v4h3.1v1.8h-5.3V14.4zm8.9 11.2l-1.1 3h-1.2l.3-3.1 2 .1zm9.6-11.2v10.2c0 1.9-.8 3.1-3 3.1-2.3 0-2.9-1.3-2.9-2.9v-2.6h2.1v2.7c0 .7.2 1 .8 1 .6 0 .8-.4.8-1.1V14.4h2.2zm7.8 0v9.9c0 2-.9 3.4-3.1 3.4-2.3 0-3.3-1.3-3.3-3.4v-9.9h2.2v10.2c0 .8.3 1.3 1.1 1.3s1.1-.5 1.1-1.3V14.4h2zm1.4 10.3V23h2.1v1.8c0 .7.3 1.2 1.1 1.2.7 0 1-.5 1-1.2v-.5c0-.8-.3-1.2-1-1.9l-1.3-1.3c-1.3-1.2-1.8-2-1.8-3.5v-.4c0-1.6 1-2.9 3.1-2.9 2.2 0 3.1 1.1 3.1 3v1.1h-2v-1.1c0-.8-.3-1.1-1-1.1-.6 0-1 .3-1 1.1v.3c0 .7.4 1.2 1 1.8l1.4 1.4c1.2 1.2 1.8 2 1.8 3.4v.6c0 1.8-1 3.1-3.2 3.1-2.5-.2-3.3-1.4-3.3-3.2zm7.4-10.3h5.9v1.8h-1.8v11.3h-2.2V16.2H117v-1.8zm7.1 0h2.2v13.1h-2.2V14.4zm3.7 9.8v-6.4c0-2.1 1-3.5 3.3-3.5 2.4 0 3.1 1.4 3.1 3.3v1.6h-2v-1.7c0-.8-.3-1.3-1.1-1.3s-1.1.6-1.1 1.4v7.1c0 .8.3 1.4 1.1 1.4s1.1-.5 1.1-1.3v-2.4h2v2.3c0 1.9-.8 3.3-3.1 3.3-2.3-.3-3.3-1.8-3.3-3.8zm7.8-9.8h5.3v1.8h-3.1V20h2.2v1.8h-2.2v4h3.1v1.8h-5.3V14.4zM51.8 47.3l2.5-13.1h2.5l2.5 13.1H57l-.4-2.4h-2.3l-.4 2.4h-2.1zm2.8-4.2h1.8l-.9-5.3-.9 5.3zm7.7-4.1v8.3h-1.9V34.2h2.2l2.4 7.5v-7.5h1.8v13.1h-1.9L62.3 39zm12.6-1.3v6.1c0 2-.8 3.5-3.2 3.5h-3.4V34.2h3.4c2.4-.1 3.2 1.4 3.2 3.5zm-3.4 7.8c.9 0 1.3-.5 1.3-1.3v-6.9c0-.8-.3-1.3-1.3-1.3h-.9v9.5h.9zm7-1v-1.8h2.1v1.8c0 .7.3 1.2 1.1 1.2.7 0 1-.5 1-1.2V44c0-.8-.3-1.2-1-1.9l-1.3-1.3c-1.3-1.2-1.8-2-1.8-3.5v-.4c0-1.6 1-2.9 3.1-2.9 2.2 0 3.1 1.1 3.1 3v1.1h-2V37c0-.8-.3-1.1-1-1.1-.6 0-1 .3-1 1.1v.3c0 .7.4 1.2 1 1.8l1.4 1.4c1.2 1.2 1.8 2 1.8 3.4v.6c0 1.8-1 3.1-3.2 3.1-2.4-.2-3.3-1.4-3.3-3.1zm7.2-10.4h5.9v1.8h-1.8v11.3h-2.2V35.9h-1.8v-1.8h-.1zm9.3 7.2v6h-2.2V34.2H96c2.2 0 3 1.1 3 2.9v1.7c0 1.4-.5 2.2-1.8 2.5l2.1 6H97l-2-6zm0-5.4V40h.7c.8 0 1.1-.4 1.1-1.1V37c0-.7-.3-1.1-1.1-1.1H95zm5.4 8v-6.4c0-2.1 1-3.5 3.3-3.5s3.4 1.5 3.4 3.5v6.4c0 2-1 3.5-3.4 3.5-2.3 0-3.3-1.5-3.3-3.5zm4.5.3v-7.1c0-.8-.3-1.4-1.1-1.4s-1.1.6-1.1 1.4v7.1c0 .8.3 1.4 1.1 1.4.7 0 1.1-.6 1.1-1.4zm5.5-5.2v8.3h-1.9V34.2h2.2l2.4 7.5v-7.5h1.8v13.1H113l-2.6-8.3zm9.4 1.3h3.1v7h-1.6v-1.4c-.3 1-.9 1.6-2.1 1.6-1.9 0-2.8-1.5-2.8-3.5v-6.4c0-2.1 1-3.5 3.3-3.5 2.4 0 3.2 1.4 3.2 3.3v1.2h-2v-1.3c0-.8-.3-1.3-1.1-1.3s-1.1.6-1.1 1.4v7.1c0 .8.3 1.4 1.1 1.4.7 0 1.1-.4 1.1-1.3V42h-1v-1.7h-.1zM52.2 53h2.2v13.1h-2.2V53zm5.6 4.9v8.3H56V53h2.2l2.4 7.5V53h1.8v13.1h-1.9l-2.7-8.2zm5.9 5.4v-1.8h2.1v1.8c0 .7.3 1.2 1.1 1.2.7 0 1-.5 1-1.2v-.5c0-.8-.3-1.2-1-1.9l-1.3-1.3c-1.3-1.2-1.8-2-1.8-3.5v-.4c0-1.6 1-2.9 3.1-2.9 2.2 0 3.1 1.1 3.1 3v1.1h-2v-1.1c0-.8-.3-1.1-1-1.1-.6 0-1 .3-1 1.1v.3c0 .7.4 1.2 1 1.8l1.4 1.4c1.2 1.2 1.8 2 1.8 3.4v.6c0 1.8-1 3.1-3.2 3.1-2.4-.1-3.3-1.4-3.3-3.1zM70.9 53h5.9v1.8H75v11.3h-2.2V54.8H71l-.1-1.8zm7.1 0h2.2v13.1H78V53zm3.4 0h5.9v1.8h-1.8v11.3h-2.2V54.8h-1.8V53h-.1zm13.5 0v9.9c0 2-.9 3.4-3.1 3.4-2.3 0-3.3-1.3-3.3-3.4V53h2.2v10.2c0 .8.3 1.3 1.1 1.3s1.1-.5 1.1-1.3V53h2zm1.2 0h5.9v1.8h-1.8v11.3H98V54.8h-1.8V53h-.1zm7.1 0h2.2v13.1h-2.2V53zm3.7 9.7v-6.4c0-2.1 1-3.5 3.3-3.5s3.4 1.5 3.4 3.5v6.4c0 2-1 3.5-3.4 3.5-2.3.1-3.3-1.4-3.3-3.5zm4.5.4V56c0-.8-.3-1.4-1.1-1.4s-1.1.6-1.1 1.4v7.1c0 .8.3 1.4 1.1 1.4.7-.1 1.1-.6 1.1-1.4zm5.5-5.2v8.3H115V53h2.2l2.4 7.5V53h1.8v13.1h-1.9l-2.6-8.2zm5.9 5.4v-1.8h2.1v1.8c0 .7.3 1.2 1.1 1.2.7 0 1-.5 1-1.2v-.5c0-.8-.3-1.2-1-1.9l-1.3-1.3c-1.3-1.2-1.8-2-1.8-3.5v-.4c0-1.6 1-2.9 3.1-2.9 2.2 0 3.1 1.1 3.1 3v1.1h-2v-1.1c0-.8-.3-1.1-1-1.1-.6 0-1 .3-1 1.1v.3c0 .7.4 1.2 1 1.8l1.4 1.4c1.2 1.2 1.8 2 1.8 3.4v.6c0 1.8-1 3.1-3.2 3.1-2.4-.1-3.3-1.4-3.3-3.1z"/>
    <g fill="#FFF">
      <path d="M104.8 80.1s-1.4 1.8-1 3.6c.4 1.8 2.4 2.8 2.4 2.8s1.4-1.8 1-3.6c-.4-1.8-2.4-2.8-2.4-2.8m-2.2 10.2s1.4-1.8 1-3.6c-.4-1.8-2.4-2.8-2.4-2.8s-1.4 1.8-1 3.5c.4 1.9 2.4 2.9 2.4 2.9m5.6-1.9s1.4 1.4 3.1 1.3c1.6-.1 2.8-1.8 2.8-1.8s-1.4-1.4-3.1-1.3c-1.6.1-2.8 1.8-2.8 1.8m2.3-7.7c-1.3 1.3-1.1 3.7-1.1 3.7s2.3.2 3.7-1.1c1.3-1.3 1.1-3.7 1.1-3.7s-2.4-.2-3.7 1.1m-2.9 13.1c1.6.2 3.1-1.2 3.1-1.2s-1.1-1.7-2.7-1.9c-1.6-.2-3.1 1.2-3.1 1.2s1.1 1.7 2.7 1.9m1.4 28.1H96.9c-.9 0-1.7.8-1.7 1.7 0 .9.8 1.7 1.7 1.7H109c.9 0 1.7-.8 1.7-1.7.1-.9-.7-1.7-1.7-1.7m0 19H96.9c-.9 0-1.7.8-1.7 1.7 0 .9.8 1.7 1.7 1.7H109c.9 0 1.7-.8 1.7-1.7.1-1-.7-1.7-1.7-1.7m-54.5-23.1l-.8-.2.8.2"/>
      <path d="M108.6 126.6H97.4a1 1 0 0 0-1 1v3.4l-7.3.8-10.7-.2V125l4.3-.9c10.3-2.9 12.6-11.4 12.3-17.3-.2-6 1.7-8.3 4.5-9.4l2.3-.6c0 1.5.3 3.2 1 5.2l.7-.1c-.7-2.1-1-3.8-1-5.3 1.4-.2 2.4-.1 2.4-.1s-1-.5-2.3-1.7c.5-2.8 2.2-4.6 3.9-6.4 1-1 2-2 2.7-3.2l-.6-.4c-.7 1.2-1.7 2.1-2.6 3.1a12.4 12.4 0 0 0-4 6.4l-1.8-1.8c-2.5-2.9-5.8-.8-10.5 3.6-4.7 4.3-10.5 4.5-16.3-1.4-7.6-7.8-14.2-7.7-18.7-7.3 3.1 1.3 4.2 4.2 5.8 11.6 1.6 7.7 5.8 11.2 11.5 11.7-3.2 1.1-3.3 2.9-7.5 5.8-3.3 2.3-7.9 1.6-9.8 1.1 3.5 1.1 7.5 4.7 11.2 6 2.1.7 4.4 1.2 6.7 1.4v6.3l-19.2-.4v4.4l35.9-.8 7.3.8v3.4c0 .5.4 1 1 1h11.2c.5 0 1-.4 1-1v-11.2c-.2-.5-.7-.9-1.2-.9zm-34.4-1.4l2.4-.1v6.3l-2.4-.1v-6.1zm-22.1 9.4c0 .9-.6 1.7-1.4 1.7h-.9c-.8 0-1.4-.7-1.4-1.7v-3c0-.9.6-1.7 1.4-1.7h.9c.8 0 1.4.7 1.4 1.7v3z"/>
    </g>
  </g>
</svg>
