<svg xmlns="http://www.w3.org/2000/svg" width="162" height="162" viewBox="0 0 162 162">
  <g fill="none" fill-rule="nonzero">
    <path fill="#FCC30B" d="M.8.6h160.9v160.9H.8z"/>
    <path fill="#FFF" d="M17.3 18.5h8.4l-7.3 28h5.4L31 19.1v-5H17.3zM46.4 27.2l2.5-13.1h2.5l2.5 13.1h-2.3l-.4-2.4h-2.3l-.4 2.4h-2.1zm2.8-4.2H51l-.9-5.3-.9 5.3zm5.5-8.9h5.2v1.8h-3v3.8h2.2v1.8h-2.2v5.8h-2.2V14.1zm6.1 0H66v1.8h-3v3.8h2.2v1.8H63v5.8h-2.2V14.1zm5.8 9.7v-6.4c0-2.1 1-3.5 3.3-3.5s3.4 1.5 3.4 3.5v6.4c0 2-1 3.5-3.4 3.5-2.3.1-3.3-1.5-3.3-3.5zm4.5.4v-7.1c0-.8-.3-1.4-1.1-1.4s-1.1.6-1.1 1.4v7.1c0 .8.3 1.4 1.1 1.4.8-.1 1.1-.6 1.1-1.4zm5.6-3v6h-2.2V14.1h3.2c2.2 0 3 1.1 3 2.9v1.7c0 1.4-.5 2.2-1.8 2.5l2.1 6h-2.3l-2-6zm0-5.3V20h.7c.8 0 1.1-.4 1.1-1.1V17c0-.7-.3-1.1-1.1-1.1h-.7zm11.8 1.7v6.1c0 2-.8 3.5-3.2 3.5h-3.4V14.1h3.4c2.3 0 3.2 1.5 3.2 3.5zM85 25.4c.9 0 1.3-.5 1.3-1.3v-6.9c0-.8-.3-1.3-1.3-1.3h-.9v9.5h.9zm4 1.8l2.5-13.1H94l2.5 13.1h-2.3l-.4-2.4h-2.3l-.4 2.4H89zm2.8-4.2h1.8l-.9-5.3-.9 5.3zm5.5-8.9h3.2c2.2 0 2.9 1 2.9 2.9v1.3c0 1.1-.4 1.8-1.3 2.1 1.1.3 1.6 1 1.6 2.2v1.7c0 1.9-.8 2.9-3 2.9h-3.4V14.1zm2.2 5.5h.8c.7 0 1-.4 1-1.1v-1.6c0-.7-.3-1.1-1.1-1.1h-.8v3.8h.1zm0 1.7v4.1h1c.7 0 1.1-.4 1.1-1.1v-2c0-.7-.3-1.1-1.1-1.1h-1v.1zm5.3-7.2h2.2v11.3h2.6v1.8h-4.8V14.1zm5.8 0h5.3v1.8h-3.1v3.8h2.2v1.8h-2.2v4h3.1v1.8h-5.3V14.1zm7.9 13.1l2.5-13.1h2.5l2.5 13.1h-2.3l-.4-2.4H121l-.4 2.4h-2.1zm2.8-4.2h1.8l-.9-5.3-.9 5.3zm7.4-4.1v8.3h-1.9V14.1h2.2l2.4 7.5v-7.5h1.8v13.1h-1.9l-2.6-8.3zm12.3-1.3v6.1c0 2-.8 3.5-3.2 3.5h-3.4V14.1h3.4c2.4 0 3.2 1.5 3.2 3.5zm-3.4 7.8c.9 0 1.3-.5 1.3-1.3v-6.9c0-.8-.3-1.3-1.3-1.3h-.9v9.5h.9zM46.7 43.1v-6.3c0-2 1-3.5 3.3-3.5 2.4 0 3.1 1.4 3.1 3.3v1.5h-2v-1.7c0-.8-.3-1.3-1.1-1.3s-1.1.6-1.1 1.4v7c0 .8.3 1.4 1.1 1.4s1.1-.5 1.1-1.3v-2.4h2v2.3c0 1.9-.8 3.3-3.1 3.3-2.3-.1-3.3-1.6-3.3-3.7zm7.8-9.7h2.2v11.3h2.6v1.8h-4.8V33.4zm6 0h5.2v1.8h-3v3.7h2.2v1.8h-2.2v4h3v1.8h-5.2V33.4zm6.3 13.1l2.5-13.1h2.5l2.5 13.1H72l-.4-2.4h-2.3l-.4 2.4h-2.1zm2.8-4.1h1.8l-.9-5.3-.9 5.3zm7.6-4.1v8.2h-1.9V33.4h2.2l2.4 7.5v-7.5h1.8v13.1h-1.9l-2.6-8.2zm10.4-4.9h5.2v1.8h-3v3.7H92v1.8h-2.2v4h3v1.8h-5.2V33.4zm8.4 4.9v8.2h-1.9V33.4h2.2l2.4 7.5v-7.5h1.8v13.1h-1.9L96 38.3zm6-4.9h5.2v1.8h-3v3.7h2.2v1.8h-2.2v4h3v1.8H102V33.4zm8.8 7.1v6h-2.2V33.4h3.2c2.2 0 3 1.1 3 2.9V38c0 1.4-.5 2.2-1.8 2.5l2.1 5.9h-2.3l-2-5.9zm0-5.3v4.1h.7c.8 0 1.1-.4 1.1-1.1v-1.9c0-.7-.3-1.1-1.1-1.1h-.7zm8.7 4.3h3.1v7H121v-1.4c-.3 1-.9 1.6-2.1 1.6-1.9 0-2.8-1.5-2.8-3.5v-6.3c0-2 1-3.5 3.3-3.5 2.4 0 3.1 1.4 3.1 3.3v1.2h-2v-1.3c0-.8-.3-1.3-1.1-1.3s-1.1.6-1.1 1.4v7c0 .8.3 1.4 1.1 1.4.7 0 1.1-.4 1.1-1.3v-2.3h-1v-2zm8.8 2v5h-2.2v-5l-2.5-8.1h2.3l1.3 5 1.3-5h2.1l-2.3 8.1zM81.4 143c1.1 0 1.9-.9 1.9-1.8v-10.3c0-.9-.9-1.8-1.9-1.8a2 2 0 0 0-1.9 1.8v10.3c0 .8.9 1.8 1.9 1.8zm-.2-64.4a23.6 23.6 0 0 0 0 47.2 23.6 23.6 0 0 0 0-47.2zm-1.7 9.3c0-.8.8-1.6 1.8-1.6s1.7.9 1.7 1.6V96c0 .8-.8 1.6-1.7 1.6-1 0-1.8-.9-1.8-1.6v-8.1zm1.7 26.3a12.3 12.3 0 0 1-3.7-24v4.6a8 8 0 0 0 3.6 15.1 8 8 0 0 0 3.6-15.2v-4.6c5 1.5 8.6 6.2 8.6 11.7a12 12 0 0 1-12.1 12.4zm-27-12.3c0-1.1-.9-1.9-1.8-1.9H42c-.9 0-1.8.9-1.8 1.9a2 2 0 0 0 1.8 1.9h10.3c.9.1 1.9-.8 1.9-1.9zm68.1 0c0-1.1-.9-1.9-1.8-1.9h-10.3c-.9 0-1.8.9-1.8 1.9a2 2 0 0 0 1.8 1.9h10.3c.8.1 1.8-.8 1.8-1.9zm-41.1-27c1.1 0 1.9-.9 1.9-1.8V62.8c0-.9-.9-1.8-1.9-1.8a2 2 0 0 0-1.9 1.8V73c0 .9.9 1.9 1.9 1.9zM57.7 88.5c.5-.9.1-2.2-.6-2.6l-9-5.1c-.8-.4-2-.2-2.5.8-.5.9-.1 2.2.6 2.6l9 5.1c.7.4 2 .1 2.5-.8zm59.2 33.8c.5-.9.1-2.2-.6-2.6l-9-5.1c-.8-.4-2-.2-2.5.8-.5.9-.1 2.2.6 2.6l9 5.1c.7.4 1.9.2 2.5-.8zM94.7 78.4c.9.5 2.1.1 2.6-.6l5.1-9c.4-.8.2-2-.8-2.5-.9-.5-2.2-.1-2.6.6l-5.1 9a2 2 0 0 0 .8 2.5zm-33.9 59.2c.9.5 2.1.1 2.6-.6l5.1-9c.4-.8.2-2-.8-2.5-.9-.5-2.2-.1-2.6.6l-5.1 9c-.4.7-.1 1.9.8 2.5zm6.9-59.1c.9-.5 1.2-1.8.8-2.5l-5.1-9c-.4-.8-1.7-1.2-2.6-.6-.9.5-1.2 1.8-.8 2.6l5.1 9c.5.6 1.7 1 2.6.5zm34 59c.9-.5 1.2-1.8.8-2.5l-5.1-9c-.4-.8-1.7-1.2-2.6-.6-.9.5-1.2 1.8-.8 2.6l5.1 9c.4.7 1.7 1.1 2.6.5zm3-49.1c.5.9 1.8 1.2 2.5.8l9-5.1c.8-.4 1.2-1.7.6-2.6-.5-.9-1.8-1.2-2.6-.8l-9 5.1c-.6.5-1 1.7-.5 2.6zm-59 34c.5.9 1.8 1.2 2.5.8l9-5.1c.8-.4 1.2-1.7.6-2.6-.5-.9-1.8-1.2-2.6-.8l-9 5.1c-.7.4-1.1 1.7-.5 2.6z"/>
  </g>
</svg>
