<svg xmlns="http://www.w3.org/2000/svg" width="162" height="162" viewBox="0 0 162 162">
  <g fill="none" fill-rule="nonzero">
    <path fill="#3F7E44" d="M.8.9h160.9v160.9H.8z"/>
    <path fill="#FFF" d="M21.1 14.4v32.5h-5.5V22l-3.8 4h-.1v-5.7l5-5.9h4.4zm18 7.1v2.8c0 2.7-1.5 4.5-3.7 5.3 2.7.6 4 2.5 4 5.5v4.8c0 4.5-2.4 7.4-7.9 7.4S24 44.1 24 39.2v-4.3h5v4.6c0 1.9.7 3.2 2.5 3.2 1.7 0 2.4-1.2 2.4-2.9v-5.4c0-1.7-.8-2.6-2.7-2.6h-2.3v-4.2H31c1.8 0 2.9-.9 2.9-2.6v-3.5c0-1.8-.6-2.9-2.3-2.9-1.7 0-2.3 1.1-2.3 3.2v3.3h-5v-2.9c0-4.8 2-8.1 7.6-8.1 5 0 7.2 2.8 7.2 7.4zm101.2 80.2A73.1 73.1 0 0 0 81.2 72a73 73 0 0 0-59.1 29.7l-.5.7.5.7a73.1 73.1 0 0 0 59.1 29.7 73.2 73.2 0 0 0 59.1-29.7l.5-.7-.5-.7zM61.3 87l1.5-2c.3-.4.8-.4 1.2-.5.4-.1.9.1.9.4.1.3-.1 1.4-.3 1.6-.5.5-1.9 1.3-2.6 1.2-.5-.1-.8-.5-.7-.7zm-1.2 2.5l.1-.2c.4-.5 1.3-.6 2-.7.6-.1 1.4.2 1.5.6.1.4-1.5 1.2-1.9 1.4-.9.8-2.2 2.4-3 2.6-.3.1-.5 0-.6-.1l1.9-3.6zm13.3 27.4c-.5 1.9-1 2.6-1.5 3.2-.5.6-2.3 1.4-3.4 1.3-1.1-.1-1.3-3.1-1.3-4.6 0-.5-.8 1.1-1.2-2.2-.3-2.1-1.6.2-1.7-1.2-.1-1.4-.8-1.1-1.5-2-.7-.9-1.6.1-2.5.5-1 .4-.6.7-1.9.2h-.1a24 24 0 0 1-2-9.7l.1-2.5.2-.2c1.3-1.6 1.3-1.9 1.3-1.9l1.5-.5s2.3.4 4.1 1c1.4.5 3.7 1.8 5 1.2 1-.4 1.7-.9 1.6-1.7-.1-1-.9-1.2-1.8-.6-.4.2-1.1-1.5-1.7-1.4-.6.1.7 2.1.2 2.1-.5.1-1.5-2.1-1.7-2.4-.2-.3-.9-1.2-1.6-.5-1.5 1.4-3.8 1.3-4.3 1.7-1.5 1.1-1.8-.4-1.8-1.2l.2-.6c.5-.5 2.2-.7 2.8-.3.6.4 1.1-.1 1.4-.4.3-.3.2-.7 0-1-.2-.3.3-.6.7-.7l1.9-1.1a6 6 0 0 1 3.8 0c1 .5 2 .1 2.5-.5.6-.8 1.4-1.3 1.8-1.5.4-.2-.9-1.3-1.9-.1-1 1.3-1.5 1.4-2 1.4s-3.3-.7-3.7-1.6c-.3-.9.9-1.6 2-2.1s4-.5 4.7-.7c1.5-.3 3.4-1.1 4.4-.4 1 .6-4 1.8-2.4 2.7.6.3 3.2-1.5 4.1-2 2.1-1.1-2.1-1.5-1.5-3.7.6-2.5-5.2-1.6-8-1.3a24.8 24.8 0 0 1 37.5 15.1l-.1 1.1c-.2.9-1.9 1.7-2.9.2-.3-.4-1.3-1.4-1.3.4 0 1.7 1.7 1.9.1 2.9-1.6 1-1.9.8-2.6 1-.7.3-1.4 2-1.3 3 .2.9 2.4 3.5.8 3.4-.4 0-3.4-2.1-3.9-3.4l-1.5-3.8c-.4-1-1.5-1.3-2.3-.7-.9.6.2 1.2-.4 2.5-.6 1.3-1.1 2.4-2 1.4-2.4-2.8-5.9-1.4-6.5-4.5-.3-1.7-1.7-1.5-2.9-2.5-1.2-.9-1.9-1.5-2.1-.8-.2.6 3.8 3.8 4.1 4.6.4 1.2-1.2 2.3-2.4 2.5-1.2.3-1.7-.7-2.9-1.9s-1.7-2.1-1.7-1.1c-.1 1.4 1.1 3.4 2.3 4.1 1 .6 2.1.9 1.8 2-.3 1 0 .4-1.1 1.6-1.1 1.1-1.3 1.5-1.3 3 .1 1.6-.3 1.6-.6 2.9-.5 1.5-1.1.4-1.6 2.3zm26.7-9.9c.8-.1 2.1 1.1 1.6 1.5-.5.4-1.7.3-2.4-.2-.6-.5.4-1.3.8-1.3zm-1.1-.8c-.3-.1-.5-.4-.7-1-.2-.6.3-1 .8-.7.5.3 1.2 1 1.2 1.4 0 .5-1 .5-1.3.3zm-11 0c-.5.4-1.7.3-2.4-.2-.6-.5.4-1.3.8-1.3.9-.1 2.1 1.1 1.6 1.5zm-10.1 4.9c-.3.6-1.3 4.7-1.9 4.2-.6-.5.3-4.8.4-5.2 1-1.7 3.1-1.6 1.5 1zm3.4 16.2c-2.4 0-4.8-.4-7-1-.3-.3-.5-.7-.3-1.2.8-2 3.1-2.8 4.9-3 4-.4 9.3 2.6 10.2 2.1.8-.5 2.5-2.7 5-2.6 1.7.1 1.7.4 2.3.6a25 25 0 0 1-15.1 5.1zm17.5-7.2l-.8-.3c-1.4-.7-1.2.4-1.9.2s.8-1.8-1.3-.5c-2 1.3-1.5-.2-2.3-2.4-.9-2.2 1-4.7 2.6-5.3 2.2-.8 3.5-.9 4.5-1.2 3-.7 3.6-2.5 4.2-1.4l.3.6c.2.3.4 1 .4 1.6a25.3 25.3 0 0 1-5.7 8.7zm6.8-12.5c-.7-.2-3.5-4-1.2-6.6.4-.4-.7-1.6-.4-1.7 1.2-.1 1.8.7 2.2 1.7v1.4c-.1 1.8-.3 3.5-.6 5.2zM52.1 24.2v-6.4c0-2.1 1-3.5 3.3-3.5 2.4 0 3.1 1.4 3.1 3.3v1.6h-2v-1.7c0-.8-.3-1.3-1.1-1.3s-1.1.6-1.1 1.4v7.1c0 .8.3 1.4 1.1 1.4s1.1-.5 1.1-1.3v-2.4h2v2.3c0 1.9-.8 3.3-3.1 3.3-2.3-.3-3.3-1.8-3.3-3.8zm7.8-9.8h2.2v11.3h2.6v1.8h-4.8V14.4zm6.1 0h2.2v13.1H66V14.4zm9.9 4.6l-1.6 8.5h-1L71.7 19v8.5h-1.8V14.4h2.6l1.4 7.4 1.3-7.4H78v13.1h-2l-.1-8.5zm3.2 8.6l2.5-13.1h2.5l2.5 13.1h-2.3l-.4-2.4h-2.3l-.4 2.4h-2.1zm2.7-4.2h1.8l-.9-5.3-.9 5.3zm4.5-9h5.9v1.8h-1.8v11.3h-2.2V16.2h-1.8l-.1-1.8zm7.1 0h5.3v1.8h-3.1V20h2.2v1.8h-2.2v4h3.1v1.8h-5.3V14.4zM51.7 46.6l2.5-13.1h2.5l2.5 13.1H57l-.4-2.4h-2.3l-.4 2.4h-2.2zm2.8-4.2h1.8l-.9-5.3-.9 5.3zm5.4.8v-6.4c0-2.1 1-3.5 3.3-3.5 2.4 0 3.1 1.4 3.1 3.3v1.6h-2v-1.7c0-.8-.3-1.3-1.1-1.3s-1.1.6-1.1 1.4v7.1c0 .8.3 1.4 1.1 1.4s1.1-.5 1.1-1.3v-2.4h2v2.3c0 1.9-.8 3.3-3.1 3.3-2.4-.2-3.3-1.8-3.3-3.8zm7.2-9.7H73v1.8h-1.8v11.3H69V35.3h-1.8l-.1-1.8zm7.1 0h2.2v13.1h-2.2V33.5zm3.7 9.7v-6.4c0-2.1 1-3.5 3.3-3.5s3.4 1.5 3.4 3.5v6.4c0 2-1 3.5-3.4 3.5-2.3.1-3.3-1.5-3.3-3.5zm4.4.4v-7.1c0-.8-.3-1.4-1.1-1.4s-1.1.6-1.1 1.4v7.1c0 .8.3 1.4 1.1 1.4.8-.1 1.1-.6 1.1-1.4zm5.6-5.3v8.3H86V33.5h2.2l2.4 7.5v-7.5h1.8v13.1h-1.9l-2.6-8.3z"/>
  </g>
</svg>
