<svg xmlns="http://www.w3.org/2000/svg" width="162" height="161" viewBox="0 0 162 161">
  <g fill="none" fill-rule="nonzero">
    <path fill="#FF3A21" d="M.2 0h160.9v160.9H.2z"/>
    <path fill="#FFF" d="M25.8 23.8c-2.2 0-3.7.8-4.6 2.2v-8.1h9.4v-4.5H16.2v18.3h5V31c0-1.9.9-3 2.4-3 1.7 0 2.3 1.2 2.3 2.9v7.8c0 1.7-.6 2.9-2.3 2.9-1.9 0-2.5-1.2-2.5-3.2v-4.1h-5V38c0 4.9 2 8.1 7.5 8.1s7.8-2.9 7.8-7.4V31c0-5.2-2.6-7.2-5.6-7.2"/>
    <g fill="#FFF">
      <path d="M117.4 60.9h-20c-.1 0-.3.1-.3.3v6.6c0 .1.1.3.3.3h8l-8.8 8.8a26.3 26.3 0 0 0-42.4 20.6c0 13.3 10 24.3 22.8 26v7.7h-7.9c-.1 0-.3.1-.3.3v7.1c0 .1.1.3.3.3H77v7.5c0 .1.1.3.3.3h7.1c.1 0 .3-.1.3-.3v-7.5h7.9c.1 0 .3-.1.3-.3v-7.1c0-.1-.1-.3-.3-.3h-7.9v-7.8a26.1 26.1 0 0 0 17.1-40.9l8.7-8.7v7.4c0 .1.1.3.3.3h6.6c.1 0 .3-.1.3-.3v-20c0-.2-.2-.3-.3-.3m-37 55.9a19.3 19.3 0 1 1 0-38.6 19.3 19.3 0 0 1 0 38.6"/>
      <path d="M92.3 89.6H69l-.3.2v5.7c0 .1.1.2.3.2h23.4l.3-.2v-5.7l-.4-.2m0 10.1H69l-.3.2v5.7c0 .1.1.2.3.2h23.4l.3-.2v-5.7l-.4-.2"/>
    </g>
    <path fill="#FFF" d="M46.1 32.8h5.3v1.8h-3.1v3.8h2.2v1.8h-2.2v4h3.1V46h-5.3V32.8zm8.8 14v-.9c-1.8-.3-2.5-1.6-2.5-3.4v-6.4c0-2.1 1-3.5 3.3-3.5s3.4 1.5 3.4 3.5v6.4c0 1.4-.5 2.6-1.6 3.1l1.6.3v1.6l-4.2-.7zm2-3.8v-7.2c0-.8-.3-1.4-1.1-1.4s-1.1.6-1.1 1.4V43c0 .8.3 1.4 1.1 1.4s1.1-.6 1.1-1.4zM67 32.8v9.9c0 2-.9 3.4-3.1 3.4-2.3 0-3.3-1.3-3.3-3.4v-9.9h2.2V43c0 .8.3 1.3 1.1 1.3S65 43.8 65 43V32.8h2zm1.1 13.1l2.5-13.1h2.5l2.5 13.1h-2.3l-.4-2.4h-2.3l-.4 2.4h-2.1zm2.8-4.1h1.8l-.9-5.3-.9 5.3zm5.8-9h2.2v11.3h2.6v1.8h-4.8V32.8zm6 0h2.2v13.1h-2.2V32.8zm3.4 0H92v1.8h-1.8v11.3H88V34.6h-1.8v-1.8h-.1zm11.4 8.1v5h-2.2v-5l-2.5-8.1h2.3l1.3 5 1.3-5h2.1l-2.3 8.1zM49.5 19.6h3.1v7H51v-1.4c-.3 1-.9 1.6-2.1 1.6-1.9 0-2.8-1.5-2.8-3.5v-6.4c0-2.1 1-3.5 3.3-3.5 2.4 0 3.2 1.4 3.2 3.3v1.2h-2v-1.3c0-.8-.3-1.3-1.1-1.3s-1.1.6-1.1 1.4v7.1c0 .8.3 1.4 1.1 1.4.7 0 1.1-.4 1.1-1.3v-2.3h-1v-2h-.1zm4.6-6.1h5.3v1.8h-3.1v3.8h2.2v1.8h-2.2v4h3.1v1.8h-5.3V13.5zm8.5 4.9v8.3h-1.9V13.6h2.2l2.4 7.5v-7.5h1.8v13.1h-1.9l-2.6-8.3zM75.2 17v6.1c0 2-.8 3.5-3.2 3.5h-3.4V13.5H72c2.4 0 3.2 1.5 3.2 3.5zm-3.5 7.8c.9 0 1.3-.5 1.3-1.3v-6.9c0-.8-.3-1.3-1.3-1.3h-.9v9.5h.9zm5-11.3H82v1.8h-3.1v3.8h2.2v1.8h-2.2v4H82v1.8h-5.3V13.5zm8.8 7.1v6h-2.2V13.5h3.2c2.2 0 3 1.1 3 2.9v1.7c0 1.4-.5 2.2-1.8 2.5l2.1 6h-2.3l-2-6zm0-5.3v4.1h.7c.8 0 1.1-.4 1.1-1.1v-1.9c0-.7-.3-1.1-1.1-1.1h-.7z"/>
  </g>
</svg>
