<svg xmlns="http://www.w3.org/2000/svg" width="162" height="161" viewBox="0 0 162 161">
  <g fill="none" fill-rule="nonzero">
    <path fill="#26BDE2" d="M.5 0h160.9v160.9H.5z"/>
    <path fill="#FFF" d="M24.9 46.4c5.8 0 8-3.2 8-8.2v-4.8c0-5.3-2.1-8-6-8a4.8 4.8 0 0 0-4.5 2.6v-7c0-2 .6-3.4 2.6-3.4s2.5 1.2 2.5 3.2V23h5v-1.7c0-4.8-1.6-8.1-7.6-8.1-5.7 0-7.9 3.7-7.9 8.8v15.8c-.1 4.9 2.1 8.6 7.9 8.6zm-2.5-13.7c.1-1.8.9-3 2.6-3 1.9 0 2.6 1.1 2.6 3.3v5.6c0 2.1-.8 3.3-2.6 3.3s-2.5-1.2-2.5-3.3l-.1-5.9zm88.3 32.4a.8.8 0 0 0-.5-.2H51.8l-.5.2c-.1.2-.2.4-.1.6L61 125c.1.3.3.6.7.6h12l.8 9.7h-5.1l11.8 11.8L93 135.3h-5.1l.8-9.6h12.2c.3 0 .6-.2.7-.6l9.2-59.3c.1-.4 0-.6-.1-.7zm-22.5 47.5s-2.7 2.7-7 2.4c-4.3.3-7-2.4-7-2.4-4.4-4.4-2.8-9.8-1.3-12.6.9-1.8 7.7-11.9 8.2-12.7v-.1.1c.6.9 7.3 11 8.2 12.7 1.7 2.8 3.2 8.2-1.1 12.6zm18.5-35c-1.6-.7-3.6-.4-5.5.3-7.2 2.9-12.2 4-19.8 1.6-4.8-1.5-9.3-4.6-14.6-2.7A28 28 0 0 1 56 79.2l-2.3-11.8h54.6l-1.6 10.2zM46.3 45.9l2.5-13.1h2.5l2.5 13.1h-2.3l-.4-2.4h-2.3l-.4 2.4h-2.1zm2.8-4.1h1.8l-.9-5.3-.9 5.3zm7.5-4.1V46h-1.9V32.9h2.2l2.4 7.5v-7.5h1.8V46h-1.9l-2.6-8.3zm12.7-1.4v6.1c0 2-.8 3.5-3.2 3.5h-3.4V32.8h3.4c2.4 0 3.2 1.5 3.2 3.5zm-3.4 7.8c.9 0 1.3-.5 1.3-1.3v-6.9c0-.8-.3-1.3-1.3-1.3H65v9.5h.9zm8.4-1v-1.8h2.1v1.8c0 .7.3 1.2 1.1 1.2.7 0 1-.5 1-1.2v-.5c0-.8-.3-1.2-1-1.9l-1.3-1.3c-1.3-1.2-1.8-2-1.8-3.5v-.4c0-1.6 1-2.9 3.1-2.9 2.2 0 3.1 1.1 3.1 3v1.1h-2v-1.1c0-.8-.3-1.1-1-1.1-.6 0-1 .3-1 1.1v.3c0 .7.4 1.2 1 1.8l1.4 1.4c1.2 1.2 1.8 2 1.8 3.4v.6c0 1.8-1 3.1-3.2 3.1-2.5-.1-3.3-1.4-3.3-3.1zm7 2.8l2.5-13.1h2.5l2.5 13.1h-2.3l-.4-2.4h-2.3l-.4 2.4h-2.1zm2.7-4.1h1.8l-.9-5.3-.9 5.3zm7.7-4.1V46h-1.9V32.9H92l2.4 7.5v-7.5h1.8V46h-1.9l-2.6-8.3zm6.3-4.9h2.2v13.1H98V32.8zm3.3 0h5.9v1.8h-1.8v11.3h-2.2V34.6h-1.8l-.1-1.8zm5.3 13.1l2.5-13.1h2.5l2.5 13.1h-2.3l-.4-2.4h-2.3l-.4 2.4h-2.1zm2.8-4.1h1.8l-.9-5.3-.9 5.3zm4-9h5.9v1.8h-1.8v11.3h-2.2V34.6h-1.8l-.1-1.8zm7.1 0h2.2v13.1h-2.2V32.8zm3.6 9.7v-6.4c0-2.1 1-3.5 3.3-3.5s3.4 1.5 3.4 3.5v6.4c0 2-1 3.5-3.4 3.5-2.2.1-3.3-1.4-3.3-3.5zm4.5.4v-7.1c0-.8-.3-1.4-1.1-1.4s-1.1.6-1.1 1.4v7.1c0 .8.3 1.4 1.1 1.4.8-.1 1.1-.6 1.1-1.4zm5.6-5.2V46h-1.9V32.9h2.2l2.4 7.5v-7.5h1.8V46h-1.9l-2.6-8.3zM46.6 23.1v-6.4c0-2.1 1-3.5 3.3-3.5 2.4 0 3.1 1.4 3.1 3.3v1.6h-2v-1.7c0-.8-.3-1.3-1.1-1.3s-1.1.6-1.1 1.4v7.1c0 .8.3 1.4 1.1 1.4s1.1-.5 1.1-1.3v-2.4h2v2.3c0 1.9-.8 3.3-3.1 3.3-2.4-.2-3.3-1.7-3.3-3.8zm7.8-9.7h2.2v11.3h2.6v1.8h-4.8V13.4zm6 0h5.3v1.8h-3.1V19h2.2v1.8h-2.2v4h3.1v1.8h-5.3V13.4zm6.3 13.1l2.5-13.1h2.5l2.5 13.1h-2.3l-.4-2.4h-2.3l-.4 2.4h-2.1zm2.8-4.1h1.8l-.9-5.3-.9 5.3zm7.7-4.1v8.3h-1.9V13.5h2.2l2.4 7.5v-7.5h1.8v13.1h-1.9l-2.6-8.3zm14 .1L90 26.5h-2.1l-1.8-13.1h2.1l1 8.3 1.1-8.3h1.8l1.2 8.3 1-8.3h1.9l-1.7 13.1h-2.1l-1.2-8.1zm5.1 8.1l2.5-13.1h2.5l2.5 13.1h-2.3l-.4-2.4h-2.3l-.4 2.4h-2.1zm2.7-4.1h1.8l-.9-5.3-.9 5.3zm4.5-9h5.9v1.8h-1.8v11.3h-2.2V15.2h-1.8l-.1-1.8zm6.9 0h5.3v1.8h-3.1V19h2.2v1.8h-2.2v4h3.1v1.8h-5.3V13.4zm8.7 7.1v6h-2.2V13.4h3.2c2.2 0 3 1.1 3 2.9V18c0 1.4-.5 2.2-1.8 2.5l2.1 6h-2.3l-2-6zm0-5.3v4.1h.7c.8 0 1.1-.4 1.1-1.1v-1.9c0-.7-.3-1.1-1.1-1.1h-.7z"/>
  </g>
</svg>
