<svg xmlns="http://www.w3.org/2000/svg" width="162" height="162" viewBox="0 0 162 162">
  <g fill="none" fill-rule="nonzero">
    <path fill="#19486A" d="M.2.9h160.9v160.9H.2z"/>
    <path fill="#FFF" d="M24.3 14.4v32.5h-5.5V22l-3.9 4v-5.7l5-5.9h4.4zm2.5 0h13.6v5.1l-7.1 27.4h-5.4l7.3-28h-8.4v-4.5zm94.7 84.1a21 21 0 0 0-20.2-20.9 21 21 0 0 0-39.6 0A21 21 0 0 0 49.6 115a21 21 0 0 0 32 23.1 21 21 0 0 0 31.8-23.2c5-3.7 8.1-9.7 8.1-16.4zM98.3 84.6c0 8.4-6.2 15.3-14.3 16.5l-.2-2.6c0-8.4 6.2-15.3 14.3-16.5l.2 2.6zm-16.6 48.1a16.8 16.8 0 0 1-.2-23.9 16.8 16.8 0 0 1 .2 23.9zM65.1 82a16.7 16.7 0 0 1 14.3 16.5l-.2 2.6a16.7 16.7 0 0 1-14.3-16.5c0-.9 0-1.8.2-2.6zm12.5 24a16.8 16.8 0 0 1-22.6 7.4c2.8-5.5 8.4-9.3 15-9.3 2.6 0 5.3.7 7.6 1.9zm8-.1a16.6 16.6 0 0 1 22.7 7.5 16.6 16.6 0 0 1-22.7-7.5zm-4-38.1c6.9 0 12.8 4.1 15.3 10.1a20.9 20.9 0 0 0-15.3 11.8 20.9 20.9 0 0 0-15.3-11.8 16.6 16.6 0 0 1 15.3-10.1zM45.9 98.5c0-8.6 6.6-15.7 14.9-16.6l-.2 2.7a21 21 0 0 0 6.8 15.5A21 21 0 0 0 51.3 111a17 17 0 0 1-5.4-12.5zm7.2 22.4c0-1.2.1-2.3.4-3.5 2.8 1.3 5.8 2.1 9.1 2.1 3.7 0 7.1-.9 10.1-2.6a21.2 21.2 0 0 0 5.5 18.5 16.3 16.3 0 0 1-8.4 2.3 16.9 16.9 0 0 1-16.7-16.8zm57-.2a16.7 16.7 0 0 1-25 14.5 20.8 20.8 0 0 0 5.4-18.4 20.6 20.6 0 0 0 19.3.5l.3 3.4zM95.8 99.9a21 21 0 0 0 6.5-18.1 16.7 16.7 0 0 1 9.4 29c-3-5.8-8.9-10-15.9-10.9zM51.5 14.4h3.3c2.2 0 3 1.1 3 2.9v2.8c0 1.8-.8 3-3 3h-1.1v4.5h-2.2V14.4zm2.3 1.8v5.2h.8c.8 0 1.1-.4 1.1-1.1v-3c0-.7-.3-1.1-1.1-1.1h-.8zm4.3 11.4l2.5-13.1h2.5l2.5 13.1h-2.3l-.4-2.4h-2.3l-.4 2.4h-2.1zm2.8-4.2h1.8l-.9-5.3-.9 5.3zm8.1-1.9v6h-2.2V14.4H70c2.2 0 3 1.1 3 2.9V19c0 1.4-.5 2.2-1.8 2.5l2.1 6H71l-2-6zm0-5.3v4.1h.7c.8 0 1.1-.4 1.1-1.1v-1.9c0-.7-.3-1.1-1.1-1.1H69zm4.8-1.8h5.9v1.8h-1.8v11.3h-2.2V16.2h-1.8v-1.8h-.1zm9.1 4.9v8.3H81V14.5h2.2l2.4 7.5v-7.5h1.8v13.1h-1.9l-2.6-8.3zm6.4-4.9h5.3v1.8h-3.1V20h2.2v1.8h-2.2v4h3.1v1.8h-5.3V14.4zm8.9 7.1v6H96V14.4h3.2c2.2 0 3 1.1 3 2.9V19c0 1.4-.5 2.2-1.8 2.5l2.1 6h-2.3l-2-6zm0-5.3v4.1h.7c.8 0 1.1-.4 1.1-1.1v-1.9c0-.7-.3-1.1-1.1-1.1h-.7zm5.1 8.5V23h2.1v1.8c0 .7.3 1.2 1.1 1.2.7 0 1-.5 1-1.2v-.5c0-.8-.3-1.2-1-1.9l-1.3-1.3c-1.3-1.2-1.8-2-1.8-3.5v-.4c0-1.6 1-2.9 3.1-2.9 2.2 0 3.1 1.1 3.1 3v1.1h-2v-1.1c0-.8-.3-1.1-1-1.1-.6 0-1 .3-1 1.1v.3c0 .7.4 1.2 1 1.8l1.4 1.4c1.2 1.2 1.8 2 1.8 3.4v.6c0 1.8-1 3.1-3.2 3.1-2.4-.2-3.3-1.4-3.3-3.2zm12.1-2.9h-2.1v5.8H111V14.5h2.2v5.6h2.1v-5.6h2.2v13.1h-2.2v-5.8h.1zm3.7-7.4h2.2v13.1h-2.2V14.4zm3.6 0h3.3c2.2 0 3 1.1 3 2.9v2.8c0 1.8-.8 3-3 3h-1v4.5h-2.2l-.1-13.2zm2.3 1.8v5.2h.8c.8 0 1.1-.4 1.1-1.1v-3c0-.7-.3-1.1-1.1-1.1h-.8zm4.9 8.5V23h2.1v1.8c0 .7.3 1.2 1.1 1.2.7 0 1-.5 1-1.2v-.5c0-.8-.3-1.2-1-1.9l-1.3-1.3c-1.3-1.2-1.8-2-1.8-3.5v-.4c0-1.6 1-2.9 3.1-2.9 2.2 0 3.1 1.1 3.1 3v1.1h-2v-1.1c0-.8-.3-1.1-1-1.1-.6 0-1 .3-1 1.1v.3c0 .7.4 1.2 1 1.8l1.4 1.4c1.2 1.2 1.8 2 1.8 3.4v.6c0 1.8-1 3.1-3.2 3.1-2.4-.2-3.3-1.4-3.3-3.2zM51.5 33.5h5.2v1.8h-3v3.8h2.2v1.8h-2.2v5.8h-2.2V33.5zm6 9.8v-6.4c0-2.1 1-3.5 3.3-3.5s3.4 1.5 3.4 3.5v6.4c0 2-1 3.5-3.4 3.5-2.3 0-3.3-1.5-3.3-3.5zm4.5.3v-7.1c0-.8-.3-1.4-1.1-1.4s-1.1.6-1.1 1.4v7.1c0 .8.3 1.4 1.1 1.4.7 0 1.1-.6 1.1-1.4zm5.8-3v6h-2.2V33.5h3.2c2.2 0 3 1.1 3 2.9v1.7c0 1.4-.5 2.2-1.8 2.5l2.1 6h-2.3l-2-6zm0-5.3v4.1h.7c.8 0 1.1-.4 1.1-1.1v-1.9c0-.7-.3-1.1-1.1-1.1h-.7zm7.6-1.8h5.9v1.8h-1.8v11.3h-2.2V35.3h-1.8v-1.8h-.1zm11.2 7.4h-2.1v5.8h-2.2V33.6h2.2v5.6h2.1v-5.6h2.2v13.1h-2.2v-5.8zm3.7-7.4h5.3v1.8h-3.1v3.8h2.2v1.8h-2.2v4h3.1v1.8h-5.3V33.5zm12.4 6.2h3.1v7h-1.6v-1.4c-.3 1-.9 1.6-2.1 1.6-1.9 0-2.8-1.5-2.8-3.5V37c0-2.1 1-3.5 3.3-3.5 2.4 0 3.2 1.4 3.2 3.3V38h-2v-1.3c0-.8-.3-1.3-1.1-1.3s-1.1.6-1.1 1.4v7.1c0 .8.3 1.4 1.1 1.4.7 0 1.1-.4 1.1-1.3v-2.3h-1v-2h-.1zm4.3 3.6v-6.4c0-2.1 1-3.5 3.3-3.5s3.4 1.5 3.4 3.5v6.4c0 2-1 3.5-3.4 3.5-2.2 0-3.3-1.5-3.3-3.5zm4.5.3v-7.1c0-.8-.3-1.4-1.1-1.4s-1.1.6-1.1 1.4v7.1c0 .8.3 1.4 1.1 1.4s1.1-.6 1.1-1.4zm2.9 3.1l2.5-13.1h2.5l2.5 13.1h-2.3l-.4-2.4h-2.3l-.4 2.4h-2.1zm2.7-4.2h1.8l-.9-5.3-.9 5.3zm5.9-9h2.2v11.3h2.6v1.8H123V33.5zm5.6 10.3V42h2.1v1.8c0 .7.3 1.2 1.1 1.2.7 0 1-.5 1-1.2v-.5c0-.8-.3-1.2-1-1.9l-1.3-1.3c-1.3-1.2-1.8-2-1.8-3.5v-.4c0-1.6 1-2.9 3.1-2.9 2.2 0 3.1 1.1 3.1 3v1.1h-2v-1.1c0-.8-.3-1.1-1-1.1-.6 0-1 .3-1 1.1v.3c0 .7.4 1.2 1 1.8l1.4 1.4c1.2 1.2 1.8 2 1.8 3.4v.6c0 1.8-1 3.1-3.2 3.1-2.4-.1-3.3-1.3-3.3-3.1z"/>
  </g>
</svg>
