<svg xmlns="http://www.w3.org/2000/svg" width="161" height="162" viewBox="0 0 161 162">
  <g fill="none" fill-rule="nonzero">
    <path fill="#FD6925" d="M.1.2H161v160.9H.1z"/>
    <path fill="#FFF" d="M29.6 21.8c0-5-2.2-8.7-7.9-8.7-5.8 0-8 3.2-8 8.2v4.8c0 5.3 2.1 8 6 8 2.3 0 3.7-1.1 4.5-2.6v7c0 2-.8 3.3-2.7 3.3-2 0-2.7-1.1-2.7-3.2v-2.2h-5v1.7c0 4.8 1.7 8.1 7.8 8.1 5.7 0 8-3.7 8-8.8V21.8zm-5.4 5c-.1 1.8-.9 3-2.6 3-1.9 0-2.6-1.1-2.6-3.3v-5.6c0-2.1.8-3.3 2.6-3.3s2.5 1.2 2.5 3.3v5.9h.1zm96.6 79.2l-19.1-11V72.9c0-.5-.2-.9-.7-1.1L81.2 60.4c-.4-.2-.9-.2-1.3 0L60.1 71.8c-.4.2-.7.7-.7 1.1V95l-19.1 11c-.4.2-.7.7-.7 1.1v22.8c0 .5.2.9.7 1.1l19.8 11.4.7.2.7-.2 19.1-11 19.1 11 .7.2.7-.2 19.8-11.4c.4-.2.7-.7.7-1.1v-22.8c-.2-.5-.4-.9-.8-1.1zm-41.6 21.7l-15.9-9.2 15.9-9.2v18.4zm18.5-32l-15.9 9.2V86.6l15.9 9.1zm-18.5 9.1l-15.9-9.2 15.9-9.2v18.4zm4 2.3l17.2-9.9 17.2 9.9-17.2 9.9-17.2-9.9zM99 93.4l-15.9-9.2L99 75v18.4zm-21.1-9.1L62 93.5V75.2l15.9 9.1zm-18.4 54.8l-17.2-9.9v-19.8l17.2 9.9v19.8zm2.6 0v-18.3L78 130l-15.9 9.1zm56.7-9.9l-17.2 9.9v-19.8l17.2-9.9v19.8zM38.1 13.9h2.1v12.2h-2.1V13.9zm5 4.6v7.7h-1.7V14h2l2.2 7v-7h1.7v12.2h-1.8l-2.4-7.7zm11.6-1.3v5.7c0 1.9-.8 3.3-3 3.3h-3.2V14h3.2c2.3-.1 3 1.3 3 3.2zm-3.2 7.3c.8 0 1.2-.5 1.2-1.2v-6.4c0-.7-.3-1.2-1.2-1.2h-.9v8.9l.9-.1zM62 13.9v9.2c0 1.9-.8 3.1-2.9 3.1-2.2 0-3.1-1.2-3.1-3.1v-9.2h2.1v9.4c0 .7.3 1.2 1 1.2s1-.5 1-1.2v-9.4H62zm1.1 9.6v-1.6H65v1.7c0 .7.3 1.1 1 1.1.6 0 .9-.4.9-1.1v-.5c0-.7-.3-1.1-.9-1.7l-1.2-1.2c-1.2-1.2-1.7-1.9-1.7-3.3v-.4c0-1.5.9-2.7 2.9-2.7 2.1 0 2.9 1 2.9 2.8v1H67v-1.1c0-.7-.3-1-1-1-.6 0-1 .3-1 1v.3c0 .7.4 1.1 1 1.7l1.3 1.3c1.1 1.1 1.7 1.8 1.7 3.2v.6c0 1.7-.9 2.9-3 2.9-2.1-.2-2.9-1.4-2.9-3zm6.4-9.6H75v1.7h-1.7v10.5h-2.1V15.6h-1.7v-1.7zm8.5 6.6v5.6h-2V13.9h3c2.1 0 2.8 1 2.8 2.7v1.6c0 1.3-.5 2.1-1.6 2.4l2 5.5H80l-2-5.6zm0-4.9v3.8h.7c.7 0 1-.4 1-1v-1.8c0-.7-.3-1-1-1H78zm8.6 5.9v4.6h-2.1v-4.6l-2.3-7.6h2.1l1.2 4.6 1.2-4.6h2l-2.1 7.6zm4.3 2.8l-1 2.8h-1.2l.3-2.9h1.9v.1zm3.3-10.4h2.1v12.2h-2.1V13.9zm5 4.6v7.7h-1.7V14h2l2.2 7v-7h1.7v12.2h-1.8l-2.4-7.7zm7.2 0v7.7h-1.7V14h2l2.2 7v-7h1.7v12.2h-1.8l-2.4-7.7zm5.5 4.5v-5.9c0-1.9.9-3.3 3.1-3.3s3.1 1.4 3.1 3.3V23c0 1.9-.9 3.3-3.1 3.3s-3.1-1.4-3.1-3.3zm4.2.3v-6.6c0-.7-.3-1.3-1.1-1.3-.7 0-1 .5-1 1.3v6.6c0 .7.3 1.3 1 1.3s1.1-.5 1.1-1.3zm9.9-9.4l-2.3 12.2h-2.2l-2.3-12.2h2.1l1.4 8.5 1.4-8.5h1.9zm-.3 12.2l2.3-12.2h2.3l2.3 12.2h-2.1l-.4-2.2H128l-.4 2.2h-1.9zm2.5-3.8h1.6l-.8-4.9-.8 4.9zm4.2-8.4h5.5v1.7h-1.7v10.5h-2.1V15.6h-1.7v-1.7zm6.5 0h2.1v12.2h-2.1V13.9zm3.4 9.1v-5.9c0-1.9.9-3.3 3.1-3.3s3.1 1.4 3.1 3.3V23c0 1.9-.9 3.3-3.1 3.3s-3.1-1.4-3.1-3.3zm4.1.3v-6.6c0-.7-.3-1.3-1.1-1.3-.7 0-1 .5-1 1.3v6.6c0 .7.3 1.3 1 1.3.8 0 1.1-.5 1.1-1.3zm5.1-4.8v7.7h-1.7V14h2l2.2 7v-7h1.7v12.2h-1.8l-2.4-7.7zM37.7 45.5L40 33.3h2.3l2.3 12.2h-2.1l-.4-2.2H40l-.4 2.2h-1.9zm2.6-3.9h1.6l-.8-4.9-.8 4.9zm6.9-3.8v7.7h-1.7V33.3h2l2.2 7v-7h1.7v12.2h-1.8l-2.4-7.7zm11.6-1.3v5.7c0 1.9-.8 3.3-3 3.3h-3.2V33.3h3.2c2.2 0 3 1.4 3 3.2zm-3.2 7.3c.8 0 1.2-.5 1.2-1.2v-6.4c0-.7-.3-1.2-1.2-1.2h-.9v8.9l.9-.1zM62 33.3h2.1v12.2H62V33.3zm5.1 4.5v7.7h-1.7V33.3h2l2.2 7v-7h1.7v12.2h-1.8l-2.4-7.7zm5.5-4.5h4.8V35h-2.8v3.5h2.1v1.7h-2.1v5.4h-2.1l.1-12.3zm7.8 6.6v5.6h-2.1V33.3h3c2.1 0 2.8 1 2.8 2.7v1.6c0 1.3-.5 2.1-1.6 2.4l2 5.5h-2.2l-1.9-5.6zm0-5v3.8h.7c.7 0 1-.4 1-1v-1.8c0-.7-.3-1-1-1h-.7zm4.7 10.6l2.3-12.2h2.3L92 45.5h-2.1l-.4-2.2h-2.2l-.4 2.2h-1.8zm2.5-3.9h1.6l-.8-4.9-.8 4.9zm5.1 1.2v-1.6h1.9v1.7c0 .7.3 1.1 1 1.1.6 0 .9-.4.9-1.1v-.5c0-.7-.3-1.1-.9-1.7l-1.2-1.2c-1.2-1.2-1.7-1.9-1.7-3.3v-.4c0-1.5.9-2.7 2.9-2.7 2.1 0 2.9 1 2.9 2.8v1h-1.9v-1.1c0-.7-.3-1-1-1-.6 0-1 .3-1 1v.3c0 .7.4 1.1 1 1.7l1.3 1.3c1.1 1.1 1.7 1.8 1.7 3.2v.6c0 1.7-.9 2.9-3 2.9s-2.9-1.4-2.9-3zm6.5-9.5h5.5V35H103v10.5h-2.1V35h-1.7v-1.7zm8.6 6.6v5.6h-2.1V33.3h3c2.1 0 2.8 1 2.8 2.7v1.6c0 1.3-.5 2.1-1.6 2.4l2 5.5h-2.2l-1.9-5.6zm0-5v3.8h.7c.7 0 1-.4 1-1v-1.8c0-.7-.3-1-1-1h-.7zm10.9-1.6v9.2c0 1.9-.8 3.1-2.9 3.1-2.2 0-3.1-1.2-3.1-3.1v-9.2h2.1v9.4c0 .7.3 1.2 1 1.2s1-.5 1-1.2v-9.4h1.9zm1.3 9v-5.9c0-1.9.9-3.3 3.1-3.3 2.3 0 2.9 1.3 2.9 3.1v1.4h-1.9V36c0-.8-.3-1.2-1-1.2s-1 .5-1 1.3v6.6c0 .7.3 1.3 1 1.3s1-.5 1-1.2v-2.3h1.9v2.1c0 1.7-.7 3-2.9 3s-3.1-1.4-3.1-3.3zm6.4-9h5.5V35h-1.7v10.5h-2.1V35h-1.7v-1.7zm12.5 0v9.2c0 1.9-.8 3.1-2.9 3.1-2.2 0-3.1-1.2-3.1-3.1v-9.2h2.1v9.4c0 .7.3 1.2 1 1.2s1-.5 1-1.2v-9.4h1.9zm3.3 6.6v5.6h-2.1V33.3h3c2.1 0 2.8 1 2.8 2.7v1.6c0 1.3-.5 2.1-1.6 2.4l2 5.5h-2.2l-1.9-5.6zm0-5v3.8h.7c.7 0 1-.4 1-1v-1.8c0-.7-.3-1-1-1h-.7zm5-1.6h4.9V35h-2.8v3.5h2v1.7h-2v3.7h2.8v1.7h-4.9V33.3z"/>
  </g>
</svg>
