<svg xmlns="http://www.w3.org/2000/svg" width="162" height="162" viewBox="0 0 162 162">
  <g fill="none" fill-rule="nonzero">
    <path fill="#56C02B" d="M.5.9h160.9v160.9H.5z"/>
    <path fill="#FFF" d="M12.3 20.3V26l3.8-4h.1v24.9h5.4V14.4h-4.3l-5 5.9zm22.3 4.4c-2.2 0-3.7.8-4.6 2.2v-8.1h9.4v-4.4H25v18.3h5V32c0-1.9.9-3 2.4-3 1.7 0 2.3 1.1 2.3 2.9v7.8c0 1.7-.6 2.9-2.3 2.9-1.9 0-2.5-1.2-2.5-3.2v-4.1h-5V39c0 4.9 2 8.1 7.5 8.1s7.8-2.9 7.8-7.4v-7.9c0-5-2.7-7.1-5.6-7.1zM67.9 109.7c.2 0 .4.2.4.4v11.7c0 .2-.2.4-.4.4h-4.7a.4.4 0 0 1-.4-.4v-11.7c0-.2.2-.4.4-.4h4.7zm52.1 17.5H41.9c-.2 0-.4.2-.4.4v4.8c0 .2.2.4.4.4H120c.2 0 .4-.2.4-.4v-4.8c0-.2-.2-.4-.4-.4zm0 9.5H41.9c-.2 0-.4.2-.4.4v4.8c0 .2.2.4.4.4H120c.2 0 .4-.2.4-.4v-4.8c0-.2-.2-.4-.4-.4zm-14.9-39.9c-1-.8-3.6-2.5-6.8-2.5A9 9 0 0 0 92 97l-.2.5v.4l.2.5c.2.1.3.2.6.1h.1l.4-.2c.4-.3 1.5-.7 3.1-.7 1.7 0 4.9.4 8.1 3.4l.1.1c.2.2.4.3.7.3.2 0 .5-.1.7-.3l.1-.1c3.2-2.9 6.4-3.4 8.1-3.4 1.6 0 2.7.4 3.1.7l.4.3h.5c.3-.1.5-.3.5-.6v-.4l-.2-.5a9 9 0 0 0-6.4-2.7c-3.2-.2-5.8 1.6-6.8 2.4zm-4.8-31.2c-.2.1-.3.2-.3.4l-.1.3c-.1.2 0 .4.1.6.1.2.3.3.5.3h.1l.4-.1.5-.1c.3 0 3.5.1 5.6 3.6v.1l.5.4h.2l.4-.1h.1c1.1-.6 2.3-.9 3.5-.9 2 0 3.3.8 3.6 1.1l.3.3.3.1h.2l.3-.1c.2-.1.3-.2.3-.4l.1-.2v-.2l-.1-.3a6 6 0 0 0-5.3-3.2c-1.2 0-2.2.3-2.8.5-.7-1-2.5-3-5.3-3a11 11 0 0 0-3.1.9zM83.8 77.7v.4c0 .2.1.4.3.5l.5.1h.1l.3-.2a6 6 0 0 1 3-.7c1.5 0 3.8.4 6.2 2.3l.1.1.6.2h.1c.2 0 .5-.1.6-.3l.1-.1a9.3 9.3 0 0 1 6.9-3.2c1 0 1.8.2 2 .4l.4.2h.5c.3-.1.5-.4.4-.7v-.3l-.2-.5a7.8 7.8 0 0 0-5-2 9.2 9.2 0 0 0-5.8 2.4 9.2 9.2 0 0 0-5.2-1.7c-2.1 0-3.9.9-5.5 2.6-.4.1-.4.3-.4.5zm-39.6 6.2c0-4.7 3.8-8.5 8.5-8.5h.5a11.5 11.5 0 1 1 21.7 5.9c5.7 1.3 10 6.4 10 12.5 0 7.1-5.7 12.8-12.8 12.8l-17.1-.1c-5 0-9.1-4.1-9.1-9.1 0-2.4.9-4.6 2.5-6.2a8.5 8.5 0 0 1-4.2-7.3zM51.9 14.4h2.2v11.3h2.6v1.8h-4.8V14.4zm6.1 0h2.2v13.1H58V14.4zm3.8 0H67v1.8h-3V20h2.2v1.8H64v5.8h-2.2V14.4zm6.4 0h5.3v1.8h-3.1V20h2.2v1.8h-2.2v4h3.1v1.8h-5.3V14.4zM51.9 43.5v-6.4c0-2.1 1-3.5 3.3-3.5s3.4 1.5 3.4 3.5v6.4c0 2-1 3.5-3.4 3.5-2.3 0-3.3-1.5-3.3-3.5zm4.5.3v-7.1c0-.8-.3-1.4-1.1-1.4s-1.1.6-1.1 1.4v7.1c0 .8.3 1.4 1.1 1.4.7 0 1.1-.6 1.1-1.4zm5.3-5.2v8.3h-1.9V33.8H62l2.4 7.5v-7.5h1.8v13.1h-1.9l-2.6-8.3zm9.3-4.9h2.2V45h2.6v1.8H71V33.7zm5.4 13.2l2.5-13.1h2.5l2.5 13.1h-2.3l-.4-2.4h-2.3l-.4 2.4h-2.1zm2.8-4.2H81l-.9-5.3-.9 5.3zm7.5-4.1v8.3h-1.9V33.8H87l2.4 7.5v-7.5h1.8v13.1h-1.9l-2.6-8.3zm12.6-1.3v6.1c0 2-.8 3.5-3.2 3.5h-3.4V33.8h3.4c2.3-.1 3.2 1.4 3.2 3.5zm-3.5 7.8c.9 0 1.3-.5 1.3-1.3v-6.9c0-.8-.3-1.3-1.3-1.3h-.9v9.5h.9z"/>
  </g>
</svg>
